<svg width="27" height="27" viewBox="0 0 27 27" fill="none" xmlns="http://www.w3.org/2000/svg">
<path fill-rule="evenodd" clip-rule="evenodd" d="M20 6.67C20 2.99 17.02 0 13.33 0C9.64 0 6.67 2.98 6.67 6.67C6.67 10.36 9.65 13.34 13.34 13.34H12.01C5.37 13.33 0 18.71 0 25.33C0 26.07 0.6 26.66 1.33 26.66H25.33C26.07 26.66 26.66 26.06 26.66 25.33C26.66 18.7 21.29 13.33 14.66 13.33H13.33C15.1 13.33 16.79 12.63 18.04 11.38C19.29 10.13 19.99 8.43 19.99 6.67H20ZM12 16C7.36 16 3.42 19.41 2.76 24H23.91C23.25 19.41 19.31 16 14.67 16H12ZM9.33 6.67C9.33 8.88 11.12 10.67 13.33 10.67C14.39 10.67 15.41 10.25 16.16 9.5C16.91 8.75 17.33 7.73 17.33 6.67C17.33 4.46 15.54 2.67 13.33 2.67C11.12 2.67 9.33 4.46 9.33 6.67Z" fill="#2AA29C"/>
</svg>
