<svg width="28" height="27" viewBox="0 0 28 27" fill="none" xmlns="http://www.w3.org/2000/svg">
<path fill-rule="evenodd" clip-rule="evenodd" d="M21.25 19.7901C21.99 19.0801 22.97 18.6901 24 18.6801C26.21 18.6801 28 20.4701 28 22.6801C28 24.8901 26.21 26.6801 24 26.6801C21.79 26.6801 20 24.8901 20 22.6801C19.99 22.5101 19.99 22.3301 20 22.1601L7.47 15.3101C6.77 16.5601 5.44 17.3401 4 17.3501C1.79 17.3501 0 15.5601 0 13.3501C0 11.1401 1.79 9.35007 4 9.35007C5.44 9.35007 6.76 10.1401 7.47 11.3901L20 4.54007C19.99 4.37007 19.99 4.19007 20 4.02007C20 2.12007 21.32 0.480066 23.18 0.0900665C25.04 -0.299934 26.91 0.670067 27.67 2.42007C28.42 4.16007 27.85 6.20007 26.3 7.29007C24.74 8.38007 22.64 8.23007 21.26 6.92007L9.46 13.3601L21.26 19.8001L21.25 19.7901ZM25.33 4.02007C25.33 3.28007 24.73 2.69007 24 2.69007C23.27 2.69007 22.67 3.29007 22.67 4.02007C22.67 4.75007 23.27 5.35007 24 5.35007C24.73 5.35007 25.33 4.75007 25.33 4.02007ZM4 14.6801C3.26 14.6801 2.67 14.0801 2.67 13.3501C2.67 12.6201 3.27 12.0201 4 12.0201C4.73 12.0201 5.33 12.6201 5.33 13.3501C5.33 14.0801 4.73 14.6801 4 14.6801ZM22.67 22.6801C22.67 23.4201 23.27 24.0101 24 24.0101C24.73 24.0101 25.33 23.4101 25.33 22.6801C25.33 21.9501 24.73 21.3501 24 21.3501C23.27 21.3501 22.67 21.9501 22.67 22.6801Z" fill="#2AA29C"/>
</svg>
