<svg width="27" height="27" viewBox="0 0 27 27" fill="none" xmlns="http://www.w3.org/2000/svg">
<path fill-rule="evenodd" clip-rule="evenodd" d="M19.08 17.2L26.28 24.39C26.53 24.64 26.67 24.98 26.67 25.34C26.67 25.7 26.53 26.04 26.28 26.29C26.03 26.54 25.69 26.68 25.33 26.68C24.97 26.68 24.63 26.54 24.38 26.29L17.19 19.09C15.33 20.55 13.03 21.35 10.66 21.34C4.78 21.33 0 16.56 0 10.67C0 4.78 4.78 0 10.67 0C16.56 0 21.34 4.78 21.34 10.67C21.34 13.04 20.55 15.34 19.09 17.2H19.08ZM10.67 2.67C6.25 2.67 2.67 6.25 2.67 10.67C2.67 15.09 6.25 18.67 10.67 18.67C15.09 18.67 18.67 15.09 18.67 10.67C18.67 6.25 15.08 2.67 10.67 2.67Z" fill="#fa524d"/>
</svg>
