<svg width="111" height="34" viewBox="0 0 111 34" fill="none" xmlns="http://www.w3.org/2000/svg">
<g id="Vector">
<path d="M68.4325 25.9959C62.0223 30.7207 52.7312 33.2416 44.7317 33.2416C33.5151 33.2416 23.4173 29.093 15.7779 22.1931C15.1777 21.6505 15.7155 20.911 16.4358 21.3336C24.6801 26.1304 34.874 29.0162 45.4039 29.0162C52.5055 29.0162 60.3178 27.5469 67.501 24.4978C68.5862 24.0369 69.4937 25.2085 68.4325 25.9959Z" fill="#212121"/>
<path d="M71.0979 22.9467C70.2816 21.9 65.6816 22.4521 63.6169 22.697C62.9879 22.7739 62.8919 22.2265 63.4585 21.8327C67.1221 19.2543 73.1338 19.9985 73.8348 20.8628C74.5358 21.7319 73.6523 27.7579 70.2096 30.6341C69.6814 31.0759 69.1772 30.8406 69.4125 30.2548C70.1856 28.3245 71.919 23.9983 71.0979 22.9467Z" fill="#212121"/>
<path d="M63.7604 3.62976V1.12332C63.7604 0.743987 64.0485 0.489502 64.3942 0.489502H75.6156C75.9757 0.489502 76.2638 0.74879 76.2638 1.12332V3.26964C76.259 3.62976 75.9565 4.10032 75.4187 4.84457L69.6039 13.1466C71.7647 13.0938 74.0454 13.4155 76.0045 14.5198C76.4462 14.7695 76.5663 15.1344 76.5999 15.4946V18.1691C76.5999 18.534 76.1966 18.9613 75.774 18.7405C72.3216 16.9302 67.7361 16.7334 63.9188 18.7597C63.5299 18.9709 63.1217 18.5484 63.1217 18.1835V15.6434C63.1217 15.2353 63.1265 14.539 63.5347 13.9196L70.2713 4.25877H64.4086C64.0485 4.25877 63.7604 4.00429 63.7604 3.62976Z" fill="#212121"/>
<path d="M22.8267 19.2689H19.4127C19.0862 19.2449 18.8269 19 18.8029 18.6879V1.16679C18.8029 0.816272 19.0958 0.537775 19.4607 0.537775H22.6442C22.9755 0.552171 23.2396 0.806666 23.2636 1.12357V3.41395H23.326C24.1567 1.2004 25.7172 0.16805 27.8203 0.16805C29.9571 0.16805 31.2919 1.2004 32.2522 3.41395C33.0781 1.2004 34.9555 0.16805 36.9674 0.16805C38.3983 0.16805 39.9636 0.758649 40.9192 2.0839C41.9995 3.55799 41.7786 5.69952 41.7786 7.57695L41.7738 18.6351C41.7738 18.9856 41.4809 19.2689 41.116 19.2689H37.7069C37.366 19.2449 37.0923 18.9712 37.0923 18.6351V9.34875C37.0923 8.6093 37.1595 6.76548 36.9962 6.06444C36.7418 4.88804 35.9783 4.55673 34.9892 4.55673C34.1633 4.55673 33.299 5.10892 32.9485 5.99242C32.5979 6.87591 32.6316 8.35481 32.6316 9.34875V18.6351C32.6316 18.9856 32.3387 19.2689 31.9737 19.2689H28.5646C28.2189 19.2449 27.95 18.9712 27.95 18.6351L27.9452 9.34875C27.9452 7.39449 28.2669 4.51832 25.8421 4.51832C23.3884 4.51832 23.4845 7.32246 23.4845 9.34875V18.6351C23.4845 18.9856 23.1916 19.2689 22.8267 19.2689Z" fill="#212121"/>
<path d="M85.9248 0.16805C90.9905 0.16805 93.7322 4.51832 93.7322 10.0498C93.7322 15.394 90.7024 19.6338 85.9248 19.6338C80.9503 19.6338 78.2422 15.2835 78.2422 9.86252C78.2422 4.40788 80.9839 0.16805 85.9248 0.16805ZM85.9536 3.74526C83.4375 3.74526 83.2791 7.17361 83.2791 9.31034C83.2791 11.4519 83.2455 16.023 85.9248 16.023C88.5705 16.023 88.6953 12.3354 88.6953 10.0882C88.6953 8.6093 88.6329 6.8423 88.1863 5.44023C87.8022 4.22062 87.0388 3.74526 85.9536 3.74526Z" fill="#212121"/>
<path d="M100.301 19.2689H96.9011C96.5602 19.2449 96.2865 18.9712 96.2865 18.6351L96.2817 1.10917C96.3105 0.787459 96.5938 0.537775 96.9396 0.537775H100.104C100.402 0.552171 100.646 0.753849 100.714 1.02754V3.70684H100.776C101.732 1.31084 103.071 0.16805 105.429 0.16805C106.961 0.16805 108.454 0.720237 109.414 2.23275C110.307 3.63482 110.307 5.99242 110.307 7.68739V18.7167C110.269 19.024 109.986 19.2689 109.649 19.2689H106.226C105.914 19.2449 105.654 19.0144 105.621 18.7167V9.1999C105.621 7.28405 105.842 4.4799 103.484 4.4799C102.653 4.4799 101.89 5.03689 101.511 5.88198C101.031 6.95274 100.968 8.0187 100.968 9.1999V18.6351C100.963 18.9856 100.666 19.2689 100.301 19.2689Z" fill="#212121"/>
<path d="M54.8153 10.8997V10.1602C52.3472 10.1602 49.7399 10.6884 49.7399 13.5982C49.7399 15.0723 50.5034 16.071 51.8142 16.071C52.7746 16.071 53.634 15.4804 54.1766 14.5201C54.8489 13.3389 54.8153 12.2297 54.8153 10.8997ZM58.258 19.2209C58.0323 19.4226 57.7058 19.437 57.4513 19.3025C56.3182 18.3614 56.1165 17.9244 55.4923 17.0265C53.6196 18.9376 52.2944 19.509 49.8648 19.509C46.9934 19.509 44.7559 17.7372 44.7559 14.1888C44.7559 11.4183 46.2588 9.53122 48.3955 8.60931C50.2489 7.79303 52.837 7.64898 54.8153 7.42331V6.98156C54.8153 6.17008 54.8777 5.20976 54.4023 4.50872C53.9846 3.87971 53.1875 3.62042 52.4865 3.62042C51.1852 3.62042 50.0232 4.28785 49.7399 5.67071C49.6823 5.97802 49.4566 6.28052 49.1493 6.29492L45.8362 5.9396C45.5577 5.87718 45.2504 5.65151 45.3272 5.22416C46.0907 1.21001 49.7159 0 52.9618 0C54.6232 0 56.7935 0.441749 58.1044 1.69977C59.7657 3.2507 59.6073 5.32019 59.6073 7.57215V12.8923C59.6073 14.4913 60.2699 15.1923 60.8941 16.0566C61.115 16.3639 61.163 16.7336 60.8845 16.9641C60.1883 17.5451 58.9494 18.6255 58.2676 19.2305L58.258 19.2209Z" fill="#212121"/>
<path d="M10.0594 10.8997V10.1602C7.59136 10.1602 4.98408 10.6884 4.98408 13.5982C4.98408 15.0723 5.74754 16.071 7.05838 16.071C8.0187 16.071 8.87819 15.4804 9.42078 14.5201C10.093 13.3389 10.0594 12.2297 10.0594 10.8997ZM13.5022 19.2209C13.2765 19.4226 12.95 19.437 12.6955 19.3025C11.5623 18.3614 11.3606 17.9244 10.7364 17.0265C8.86379 18.9376 7.53854 19.509 5.10892 19.509C2.23755 19.509 0 17.7372 0 14.1888C0 11.4183 1.50291 9.53122 3.63963 8.60931C5.49305 7.79303 8.08112 7.64898 10.0594 7.42331V6.98156C10.0594 6.17008 10.1218 5.20976 9.64645 4.50872C9.22871 3.87971 8.43164 3.62042 7.7306 3.62042C6.42937 3.62042 5.26737 4.28785 4.98408 5.67071C4.92646 5.97802 4.70078 6.28052 4.39348 6.29492L1.08036 5.9396C0.80187 5.87718 0.494566 5.65151 0.571392 5.22416C1.33485 1.21001 4.96007 0 8.20597 0C9.86732 0 12.0377 0.441749 13.3485 1.69977C15.0099 3.2507 14.8514 5.32019 14.8514 7.57215V12.8923C14.8514 14.4913 15.514 15.1923 16.1382 16.0566C16.3591 16.3639 16.4071 16.7336 16.1286 16.9641C15.4324 17.5451 14.1936 18.6255 13.5118 19.2305L13.5022 19.2209Z" fill="#212121"/>
</g>
</svg>
