<svg width="214" height="82" viewBox="0 0 214 82" fill="none" xmlns="http://www.w3.org/2000/svg">
<g id="Client Logos" clip-path="url(#clip0_253_1098)">
<path id="Vector" fill-rule="evenodd" clip-rule="evenodd" d="M81.3465 41.4768L87.858 48.5982L87.8568 48.5974C48.2953 51.3464 16.4752 69.1788 -8 95C-3.81558 69.178 15.6622 43.6251 45.3158 27.5619L39.155 21.7866C58.8569 9.09856 89.8112 4.17858 117.362 8.90632L113.572 2C181.735 8.94444 219.213 57.5167 221 94.9996C200.702 70.2445 176.495 54.2852 154.646 45.7352L159.992 58.1785C130.971 44.4009 106.023 40.6479 81.3465 41.4768ZM125.071 9.91379C164.071 16.3955 198.81 43.4711 210.361 74.8751L210.358 74.8735C191.996 54.6891 160.574 39.4294 143.666 35.9286L148.119 46.2944C125.161 36.8785 92.9582 32.0901 68.7959 36.9279L75.0429 43.7604C49.9017 46.9173 19.2561 61.772 5.17032 74.606C13.7624 57.0902 35.4606 38.0268 56.0263 29.125L49.5899 23.0907C72.0287 11.265 106.163 10.8205 129.652 18.1596L125.071 9.91379Z" fill="white"/>
</g>
<defs>
<clipPath id="clip0_253_1098">
<rect width="214" height="82" fill="white"/>
</clipPath>
</defs>
</svg>
