<svg width="72" height="40" viewBox="0 0 72 40" fill="none" xmlns="http://www.w3.org/2000/svg">
<g id="Client Logos">
<path id="path1607" d="M30.3465 3.33402C27.2385 3.28707 24.4801 5.79981 24.4801 9.43623V25.8113C24.4832 26.4007 24.043 26.9235 23.4021 26.9235H18.2834C7.20719 26.9367 8.19693 12.7635 17.6249 12.7502C21.8161 12.7443 23.2811 12.7502 23.2811 12.7502V8.77918H17.4238C13.7536 8.78511 10.9749 10.1828 9.1059 12.2666C7.23682 14.3504 6.27994 17.1255 6.28143 19.8834C6.28288 22.5384 7.18845 25.294 9.08003 27.3824C10.9716 29.4708 13.8477 30.8989 17.8228 30.8989H27.4841C28.0427 30.8989 28.5162 30.4259 28.5162 29.8741V9.86829C28.51 8.82212 29.0526 7.98105 29.9251 7.70266H29.9252C30.7716 7.43337 31.7011 7.78409 32.2614 8.58101L32.2639 8.58457L32.2661 8.58826C33.6238 10.8131 37.0164 16.2708 40.0808 21.1905C41.613 23.6504 43.0632 25.976 44.1363 27.6962C44.6728 28.5563 45.1151 29.265 45.4262 29.7636C45.7348 30.2582 45.9063 30.533 45.9254 30.564C46.1514 30.8834 46.4358 31.0034 46.6728 30.9288H46.6729L46.6732 30.9286C46.8076 30.8869 46.9133 30.7922 46.9925 30.6363C47.0716 30.4805 47.1185 30.264 47.1185 30.004V9.87117C47.1152 8.82831 47.6545 7.98549 48.5299 7.70868C49.3711 7.43898 50.3035 7.78973 50.8582 8.58744L50.8604 8.59059L50.8623 8.59387C52.223 10.8172 55.6171 16.275 58.6822 21.1948C61.7455 26.1117 64.4845 30.4983 64.5274 30.5667C64.5275 30.5668 64.5276 30.5669 64.5277 30.5671C64.7492 30.8844 65.0516 31.0111 65.3042 30.9315C65.441 30.8883 65.5502 30.7916 65.6317 30.6356C65.7132 30.4796 65.7618 30.2647 65.7618 30.007V3.45801V3.45665H61.7552V18.9603C61.7552 18.9603 59.2741 14.753 55.0445 7.49135C50.9064 0.377479 43.097 3.31776 43.0938 9.43911V18.9574C43.0938 18.9574 40.6722 14.7471 36.4454 7.48546C34.7632 4.59662 32.473 3.36614 30.3465 3.33402ZM18.1477 3.45665C-4.87603 3.45378 -4.65761 36.2555 18.4578 36.2705H27.4899C31.3768 36.2733 33.8728 33.9679 33.8698 29.719V21.4105C33.8698 21.4105 38.9354 29.8092 40.9233 33.0967C44.3053 38.6866 52.4896 37.5875 52.469 30.6051V21.4163C52.469 21.4163 57.5345 29.812 59.5251 33.104C62.9072 38.6921 71.0919 37.5919 71.0711 30.6078V3.45665H67.0706V30.0068V30.007C67.0734 31.2617 66.3701 31.9629 65.7 32.1747L65.6996 32.1749C64.8822 32.4354 63.993 32.0867 63.44 31.2947L63.4381 31.292L63.4364 31.2893C63.322 31.1066 52.4805 13.7454 49.7699 9.30991C49.545 8.99057 49.2156 8.85936 48.9233 8.95176C48.6198 9.04897 48.4269 9.37018 48.4269 9.87062V30.0007V30.001C48.4301 31.2608 47.7387 31.9599 47.0715 32.1747L47.071 32.1749L47.0706 32.175C46.2652 32.4281 45.3901 32.0801 44.8407 31.2887L44.8393 31.2868L44.8381 31.2849C44.8162 31.2508 44.6413 30.9709 44.3284 30.4703C44.0156 29.9697 43.5718 29.2591 43.034 28.3975C41.9584 26.6742 40.5066 24.3466 38.9739 21.8862C35.9097 16.9676 32.5243 11.5213 31.1708 9.30403C30.9462 8.98518 30.6137 8.85631 30.3209 8.94902V8.94888C30.014 9.04626 29.8192 9.36743 29.8221 9.86391V9.86432V29.874C29.8221 31.1582 28.7693 32.2046 27.4841 32.2046H17.8226C13.4269 32.2046 10.2081 30.6089 8.09644 28.2683C5.98479 25.9277 4.97868 22.8491 4.97567 19.8834C4.97266 16.8062 6.03835 13.7088 8.1301 11.3758C10.2219 9.04276 13.3424 7.47938 17.4208 7.47342H17.421H23.2811V3.45665H18.1477Z" fill="#212121"/>
</g>
</svg>
