<svg width="141" height="142" viewBox="0 0 141 142" fill="none" xmlns="http://www.w3.org/2000/svg">
<g id="domino-s-pizza-4 1" clip-path="url(#clip0_253_1184)">
<path id="Vector" fill-rule="evenodd" clip-rule="evenodd" d="M48.1777 45.1678L91.8295 1.37841C93.6554 -0.453104 96.6363 -0.44778 98.4557 1.38973L139.639 42.9942C141.46 44.8317 141.453 47.8338 139.627 49.6654L95.9766 93.4554L48.1777 45.1678ZM87.2917 37.3978C91.8758 32.7997 99.2933 32.813 103.86 37.4264C108.427 42.0398 108.415 49.5083 103.832 54.1057C99.2477 58.7032 91.8301 58.6898 87.2633 54.0764C82.6964 49.4637 82.709 41.9952 87.2917 37.3978Z" fill="white"/>
<path id="Vector_2" fill-rule="evenodd" clip-rule="evenodd" d="M54.3171 87.6287C58.9005 83.0307 66.3181 83.0426 70.8856 87.6574C75.4531 92.2708 75.4399 99.7386 70.8565 104.337C66.2738 108.934 58.8556 108.921 54.288 104.307C49.7205 99.694 49.7337 92.2255 54.3171 87.6287ZM20.0199 87.7352C24.6033 83.1371 32.0209 83.1498 36.5884 87.7638C41.1553 92.3772 41.1427 99.8451 36.5593 104.443C31.9766 109.041 24.5584 109.027 19.9908 104.413C15.424 99.8005 15.4372 92.3327 20.0199 87.7352ZM1.37295 92.1223L45.0234 48.3317L92.8229 96.6193L49.1718 140.409C47.3458 142.241 44.3643 142.235 42.5443 140.397L1.36105 98.7935C-0.4583 96.9554 -0.453011 93.9539 1.37295 92.1223Z" fill="white"/>
<path id="Vector_3" d="M64.3459 141.992V136.098H62.1167V135.069H67.7354V136.098H65.4923V141.992H64.3459ZM68.5042 141.992V135.069H70.192L71.9287 140.598L73.6073 135.069H75.264V141.992H74.2155V136.183L72.4437 141.992H71.4071L69.5587 136.098V141.992H68.5042Z" fill="white"/>
</g>
<defs>
<clipPath id="clip0_253_1184">
<rect width="141" height="142" fill="white"/>
</clipPath>
</defs>
</svg>
