<svg width="112" height="40" viewBox="0 0 112 40" fill="none" xmlns="http://www.w3.org/2000/svg">
<g id="Client Logos">
<path id="Vector" d="M28.9687 16.0625C27.6742 20.7011 23.575 23.9374 18.7206 24.0452C13.8662 23.9374 9.76699 20.7011 8.47249 16.0625C9.11974 16.8176 10.0906 17.1413 11.0615 17.1413C12.0324 17.1413 13.0032 16.8176 13.6505 16.0625C14.2977 16.8176 15.2686 17.1413 16.2395 17.1413C17.2104 17.1413 18.1812 16.8176 18.8285 16.0625C19.4757 16.8176 20.4466 17.1413 21.4175 17.1413C22.3883 17.1413 23.3592 16.8176 24.0065 16.0625C24.6537 16.8176 25.6246 17.1413 26.5955 17.1413C27.5663 17.1413 28.3215 16.8176 28.9687 16.0625ZM29.0766 13.6892C29.0766 7.97188 24.438 3.33325 18.7206 3.33325C13.0032 3.33325 8.36461 7.97188 8.36461 13.6892H17.6419C16.4552 13.2577 15.7001 12.179 15.7001 10.8845C15.7001 9.26637 17.1025 7.86401 18.7206 7.86401C20.3387 7.86401 21.7411 9.26637 21.7411 10.8845C21.7411 12.0711 20.986 13.2577 19.9072 13.6892H29.0766ZM19.3679 36.6666C19.5836 27.8209 26.4876 20.1617 35.3333 19.8381C35.3333 28.7917 28.3215 36.1272 19.3679 36.6666ZM18.0733 36.6666C17.8576 27.8209 10.9536 20.1617 2 19.8381C2.10787 28.7917 9.11973 36.1272 18.0733 36.6666ZM59.3894 4.08839H38.3538V35.9115H59.3894V30.9492H44.9342V22.4271H59.3894V17.357H44.9342V8.94276H59.3894V4.08839ZM67.2643 17.357H73.7368C75.8943 17.357 77.4045 15.3074 77.4045 13.1499C77.5124 10.9924 75.8943 9.26639 73.8447 9.05064H67.8037V35.9115H61.0075V4.08839H75.8943C80.7486 4.08839 84.3085 8.2955 84.3085 13.1499C84.3085 18.0042 80.7486 22.4271 75.8943 22.4271H67.2643V17.357ZM77.5124 35.9115H84.6321L87.7605 27.4972H100.705L98.7637 22.2114H89.5944L94.1251 10.1294L103.51 35.9115H110.522L97.9007 4.08839H89.8101L77.5124 35.9115Z" fill="#212121"/>
</g>
</svg>
