<svg width="148" height="28" viewBox="0 0 148 28" fill="none" xmlns="http://www.w3.org/2000/svg">
<path d="M63.4162 0.337402C62.7761 0.337402 62.2314 0.555656 61.802 0.988196C61.3686 1.42074 61.1499 1.96042 61.1499 2.59931C61.1499 3.2382 61.3686 3.74613 61.802 4.1747C62.2314 4.60724 62.7761 4.8255 63.4162 4.8255C64.0563 4.8255 64.5652 4.60724 65.0066 4.18264C65.4558 3.7501 65.6825 3.21835 65.6825 2.60328C65.6825 1.9882 65.4558 1.41677 65.0066 0.984228C64.5612 0.555656 64.0285 0.341371 63.4162 0.341371V0.337402Z" fill="#212121"/>
<path d="M61.5635 9.02792V27.6271H65.2333V7.91284L61.5635 9.02792Z" fill="#212121"/>
<path d="M35.3698 7.42456C32.4833 7.42456 30.0301 8.42059 28.0779 10.3809C26.1257 12.3412 25.1357 14.8095 25.1357 17.7103C25.1357 20.6111 26.1456 23.0833 28.1376 25.0436C30.1255 27.0039 32.6224 27.996 35.5567 27.996C37.6838 27.996 39.5962 27.4642 41.2343 26.4087C42.8724 25.3571 44.1248 23.9444 44.9558 22.2023L45.1466 21.8015L41.9579 20.4603L41.783 20.8254C41.2184 21.996 40.3874 22.9325 39.3099 23.6111C38.2325 24.2896 36.98 24.6349 35.5924 24.6349C33.7794 24.6349 32.2288 24.0595 30.9764 22.9246C29.8353 21.8928 29.1236 20.5714 28.8652 18.996H45.4925L45.5203 18.6031C45.7549 15.4722 44.8762 12.7976 42.9121 10.6547C40.944 8.51186 38.4074 7.42456 35.3658 7.42456H35.3698ZM39.6519 12.3492C40.7095 13.2817 41.4052 14.4484 41.7273 15.8254H28.9844C29.3423 14.4285 30.0659 13.2579 31.1354 12.3333C32.3282 11.3055 33.7516 10.7857 35.3658 10.7857C36.98 10.7857 38.471 11.3095 39.6479 12.3492" fill="#212121"/>
<path d="M75.2844 0L71.6146 1.12302V7.80159H67.3325V11.2024H71.6146V20.6389C71.6146 22.9722 72.207 24.7381 73.3759 25.8929C74.5409 27.0437 76.342 27.627 78.7275 27.627H81.0694V24.2262H78.7275C77.4751 24.2262 76.5766 23.9643 76.0597 23.4524C75.5428 22.9365 75.2844 22.0278 75.2844 20.754V11.2024H81.0694V7.80159H75.2844V0Z" fill="#212121"/>
<path d="M92.1025 7.42456C89.1683 7.42456 86.6714 8.41662 84.6835 10.3769C82.6915 12.3373 81.6816 14.8055 81.6816 17.7103C81.6816 20.615 82.6915 23.0833 84.6835 25.0436C86.6714 27.0039 89.1683 27.996 92.1025 27.996C95.0368 27.996 97.5337 27.0039 99.5216 25.0436C101.514 23.0833 102.523 20.615 102.523 17.7103C102.523 14.8055 101.514 12.3373 99.5216 10.3769C97.5337 8.41662 95.0368 7.42456 92.1025 7.42456ZM92.1025 24.5238C90.1981 24.5238 88.6475 23.8849 87.3513 22.5714C86.0552 21.2539 85.427 19.6666 85.427 17.7142C85.427 15.7619 86.075 14.1547 87.3513 12.8571C88.6435 11.5436 90.1981 10.9047 92.1025 10.9047C94.007 10.9047 95.5894 11.5396 96.8697 12.8412C98.134 14.1269 98.7781 15.7698 98.7781 17.7182C98.7781 19.6666 98.138 21.3095 96.8697 22.5952C95.5894 23.8968 94.0309 24.5317 92.1025 24.5317V24.5238Z" fill="#212121"/>
<path d="M115.063 7.42456C113.322 7.42456 111.771 7.9325 110.447 8.93647C109.648 9.54361 108.984 10.2817 108.463 11.1428V7.79758H104.793V27.623H108.463V16.3611C108.463 14.7658 108.988 13.4801 110.066 12.4285C111.143 11.373 112.487 10.8611 114.165 10.8611C115.688 10.8611 116.924 11.3769 117.954 12.4365C118.988 13.5039 119.488 14.7857 119.488 16.3611V27.623H123.158V16.0238C123.158 13.5754 122.395 11.5079 120.884 9.88488C119.365 8.25393 117.409 7.42456 115.067 7.42456H115.063Z" fill="#212121"/>
<path d="M143.05 10.6586C141.082 8.51577 138.545 7.42847 135.504 7.42847C132.617 7.42847 130.164 8.4245 128.212 10.3848C126.26 12.3451 125.27 14.8134 125.27 17.7142C125.27 20.615 126.279 23.0872 128.271 25.0475C130.259 27.0078 132.756 27.9999 135.69 27.9999C137.818 27.9999 139.73 27.4681 141.368 26.4126C143.006 25.361 144.259 23.9483 145.09 22.2062L145.28 21.8055L142.092 20.4642L141.917 20.8293C141.352 21.9999 140.521 22.9364 139.444 23.615C138.366 24.2935 137.114 24.6388 135.726 24.6388C133.913 24.6388 132.363 24.0634 131.11 22.9285C129.969 21.8967 129.257 20.5753 128.999 18.9999H145.626L145.654 18.607C145.889 15.4761 145.01 12.8015 143.046 10.6586H143.05ZM131.269 12.3332C132.462 11.3055 133.885 10.7856 135.5 10.7856C137.114 10.7856 138.605 11.3094 139.782 12.3491C140.839 13.2816 141.535 14.4483 141.857 15.8253H129.114C129.472 14.4285 130.196 13.2578 131.265 12.3332H131.269Z" fill="#212121"/>
<path d="M21.9907 7.52783L10.9893 24.4921L13.2595 28.0001L26.5351 7.52783H21.9907Z" fill="#212121"/>
<path d="M12.9417 20.4762L4.54449 7.52783H0L8.39716 20.4762H12.9417Z" fill="#212121"/>
<path d="M58.9272 7.58333C57.0506 7.23809 55.3608 7.5238 53.9096 8.42857C52.9554 9.0238 52.1602 9.9246 51.536 11.1151V7.81349L47.8662 8.92857V27.623H51.536V16.3611C51.536 14.4881 52.2238 13.0714 53.6353 12.0357C55.0587 10.9921 56.7365 10.7024 58.7563 11.1508L59.2732 11.2659V7.64285L58.9233 7.57936L58.9272 7.58333Z" fill="#212121"/>
<path d="M145.722 26.4761V26.3214H146.648V26.4761H146.266V27.4602H146.103V26.4761H145.722ZM146.811 26.3214H147.002L147.407 27.1547L147.813 26.3214H148.004V27.4602H147.841V26.6269L147.467 27.3769H147.348L146.974 26.6269V27.4563H146.811V26.3174V26.3214Z" fill="#212121"/>
</svg>
