<svg width="33" height="33" viewBox="0 0 33 33" fill="none" xmlns="http://www.w3.org/2000/svg">
<path d="M4.125 10.725C4.125 8.41478 4.125 7.25968 4.5746 6.37729C4.97008 5.60112 5.60112 4.97008 6.37729 4.5746C7.25968 4.125 8.41478 4.125 10.725 4.125H22.275C24.5852 4.125 25.7403 4.125 26.6227 4.5746C27.3989 4.97008 28.0299 5.60112 28.4254 6.37729C28.875 7.25968 28.875 8.41478 28.875 10.725V18.15C28.875 20.4602 28.875 21.6153 28.4254 22.4977C28.0299 23.2739 27.3989 23.9049 26.6227 24.3004C25.7403 24.75 24.5852 24.75 22.275 24.75H13.3152C12.4571 24.75 12.028 24.75 11.6177 24.8342C11.2536 24.9089 10.9013 25.0325 10.5703 25.2016C10.1972 25.3922 9.86221 25.6602 9.19217 26.1963L5.91217 28.8203C5.34005 29.278 5.05399 29.5068 4.81324 29.5071C4.60387 29.5073 4.40581 29.4121 4.27519 29.2485C4.125 29.0603 4.125 28.694 4.125 27.9613V10.725Z" stroke="#212121" stroke-width="2.90909" stroke-linecap="round" stroke-linejoin="round"/>
</svg>
