<?xml version="1.0" encoding="UTF-8"?>
<svg id="Layer_2" data-name="Layer 2" xmlns="http://www.w3.org/2000/svg" viewBox="0 0 174.78 115.91">
  <defs>
    <style>
      .cls-1 {
        fill: #fa524d;
      }

      .cls-1, .cls-2 {
        stroke-width: 0px;
      }

      .cls-2 {
        fill: #fff;
      }
    </style>
  </defs>
  <g id="mark">
    <g>
      <g>
        <g>
          <path class="cls-2" d="M1.79,0v2.86h3.19V0h1.79v7.38h-1.79v-3.02H1.79v3.02H0V0h1.79Z"/>
          <path class="cls-2" d="M35.83,0v4.62c0,.8.52,1.31,1.34,1.31s1.34-.51,1.34-1.31V0h1.79v4.72c0,1.72-1.18,2.77-3.13,2.77s-3.12-1.02-3.12-2.77V0h1.79Z"/>
          <path class="cls-2" d="M67.56,0h1.83l2.23,4.81,2.23-4.81h1.83v7.38h-1.79v-3.99l-1.67,3.55h-1.2l-1.67-3.55v3.99h-1.79V0Z"/>
          <path class="cls-2" d="M105.04,0h2.12l2.92,7.38h-1.91l-.5-1.35h-3.12l-.5,1.35h-1.91l2.91-7.38ZM105.05,4.63h2.1l-1.05-2.85-1.05,2.85Z"/>
          <path class="cls-2" d="M136.54,7.38V0h1.52l3.72,4.5V0h1.79v7.38h-1.55l-3.69-4.45v4.45h-1.79Z"/>
        </g>
        <g>
          <path class="cls-2" d="M1.79,26.71v2.86h3.19v-2.86h1.79v7.38h-1.79v-3.02H1.79v3.02H0v-7.38h1.79Z"/>
          <path class="cls-2" d="M35.83,26.71v4.62c0,.8.52,1.31,1.34,1.31s1.34-.51,1.34-1.31v-4.62h1.79v4.72c0,1.72-1.18,2.77-3.13,2.77s-3.12-1.02-3.12-2.77v-4.72h1.79Z"/>
          <path class="cls-2" d="M67.56,26.71h1.83l2.23,4.81,2.23-4.81h1.83v7.38h-1.79v-3.99l-1.67,3.55h-1.2l-1.67-3.55v3.99h-1.79v-7.38Z"/>
          <path class="cls-2" d="M105.04,26.71h2.12l2.92,7.38h-1.91l-.5-1.35h-3.12l-.5,1.35h-1.91l2.91-7.38ZM105.05,31.34h2.1l-1.05-2.85-1.05,2.85Z"/>
          <path class="cls-2" d="M136.54,34.09v-7.38h1.52l3.72,4.5v-4.5h1.79v7.38h-1.55l-3.69-4.45v4.45h-1.79Z"/>
        </g>
        <g>
          <path class="cls-2" d="M1.79,53.42v2.86h3.19v-2.86h1.79v7.38h-1.79v-3.02H1.79v3.02H0v-7.38h1.79Z"/>
          <path class="cls-2" d="M35.83,53.42v4.62c0,.8.52,1.31,1.34,1.31s1.34-.51,1.34-1.31v-4.62h1.79v4.72c0,1.72-1.18,2.77-3.13,2.77s-3.12-1.02-3.12-2.77v-4.72h1.79Z"/>
          <path class="cls-2" d="M67.56,53.42h1.83l2.23,4.81,2.23-4.81h1.83v7.38h-1.79v-3.99l-1.67,3.55h-1.2l-1.67-3.55v3.99h-1.79v-7.38Z"/>
          <path class="cls-2" d="M105.04,53.42h2.12l2.92,7.38h-1.91l-.5-1.35h-3.12l-.5,1.35h-1.91l2.91-7.38ZM105.05,58.05h2.1l-1.05-2.85-1.05,2.85Z"/>
          <path class="cls-2" d="M136.54,60.79v-7.38h1.52l3.72,4.5v-4.5h1.79v7.38h-1.55l-3.69-4.45v4.45h-1.79Z"/>
        </g>
        <g>
          <path class="cls-2" d="M1.79,80.12v2.86h3.19v-2.86h1.79v7.38h-1.79v-3.02H1.79v3.02H0v-7.38h1.79Z"/>
          <path class="cls-2" d="M35.83,80.12v4.62c0,.8.52,1.31,1.34,1.31s1.34-.51,1.34-1.31v-4.62h1.79v4.72c0,1.72-1.18,2.77-3.13,2.77s-3.12-1.02-3.12-2.77v-4.72h1.79Z"/>
          <path class="cls-2" d="M67.56,80.12h1.83l2.23,4.81,2.23-4.81h1.83v7.38h-1.79v-3.99l-1.67,3.55h-1.2l-1.67-3.55v3.99h-1.79v-7.38Z"/>
          <path class="cls-2" d="M105.04,80.12h2.12l2.92,7.38h-1.91l-.5-1.35h-3.12l-.5,1.35h-1.91l2.91-7.38ZM105.05,84.76h2.1l-1.05-2.85-1.05,2.85Z"/>
          <path class="cls-2" d="M136.54,87.5v-7.38h1.52l3.72,4.5v-4.5h1.79v7.38h-1.55l-3.69-4.45v4.45h-1.79Z"/>
        </g>
        <g>
          <path class="cls-2" d="M1.79,106.83v2.86h3.19v-2.86h1.79v7.38h-1.79v-3.02H1.79v3.02H0v-7.38h1.79Z"/>
          <path class="cls-2" d="M35.83,106.83v4.62c0,.8.52,1.31,1.34,1.31s1.34-.51,1.34-1.31v-4.62h1.79v4.72c0,1.72-1.18,2.77-3.13,2.77s-3.12-1.02-3.12-2.77v-4.72h1.79Z"/>
          <path class="cls-2" d="M67.56,106.83h1.83l2.23,4.81,2.23-4.81h1.83v7.38h-1.79v-3.99l-1.67,3.55h-1.2l-1.67-3.55v3.99h-1.79v-7.38Z"/>
          <path class="cls-2" d="M105.04,106.83h2.12l2.92,7.38h-1.91l-.5-1.35h-3.12l-.5,1.35h-1.91l2.91-7.38ZM105.05,111.47h2.1l-1.05-2.85-1.05,2.85Z"/>
          <path class="cls-2" d="M136.54,114.21v-7.38h1.52l3.72,4.5v-4.5h1.79v7.38h-1.55l-3.69-4.45v4.45h-1.79Z"/>
        </g>
      </g>
      <polygon class="cls-1" points="174.78 108.67 170.89 108.67 170.89 104.78 167.55 104.78 167.55 108.67 163.65 108.67 163.65 112.01 167.55 112.01 167.55 115.91 170.89 115.91 170.89 112.01 174.78 112.01 174.78 108.67"/>
    </g>
  </g>
</svg>