<svg width="52" height="52" viewBox="0 0 52 52" fill="none" xmlns="http://www.w3.org/2000/svg">
<g id="san-francisco-giants-1 1">
<g id="Group">
<path id="Vector" fill-rule="evenodd" clip-rule="evenodd" d="M32.8903 50.9334C32.1497 50.9334 31.5502 50.316 31.5502 49.5704H31.1801C31.1801 50.5224 31.9462 51.3066 32.8907 51.3066C33.8358 51.3066 34.602 50.5224 34.602 49.5704C34.602 49.1134 34.4217 48.675 34.1009 48.3518C33.78 48.0287 33.3448 47.8471 32.891 47.8471C32.4373 47.8471 32.0021 48.0287 31.6812 48.3518C31.3604 48.675 31.1801 49.1134 31.1801 49.5704H31.5502C31.5502 49.2123 31.6915 48.8689 31.9428 48.6157C32.1942 48.3625 32.5352 48.2203 32.8907 48.2203C33.2462 48.2203 33.5871 48.3625 33.8385 48.6157C34.0899 48.8689 34.2311 49.2123 34.2311 49.5704C34.2311 50.316 33.6309 50.9334 32.8903 50.9334ZM32.5457 50.4578H32.1756V48.6698H33.0434C33.4526 48.6698 33.7458 48.7341 33.7458 49.2105C33.7458 49.5443 33.5667 49.7243 33.248 49.7504L33.6819 50.4578H33.2735L32.8644 49.7504H32.5453V49.429H33.0562C33.2476 49.429 33.3753 49.3772 33.3753 49.1848C33.3753 48.9923 33.1328 48.9919 32.9669 48.9919H32.5453L32.5457 50.4578ZM26.9159 28.2374C26.9159 28.2374 33.3246 28.6488 35.3039 27.4525C34.9462 28.5845 35.0614 32.2496 35.3039 32.8534C32.8141 31.5804 26.9159 32.0818 26.9159 32.0818V37.1999H36.427L38.457 34.8338V26.0767L36.108 23.3374C34.7033 23.1832 29.7241 23.1703 26.9156 23.1703V18.9785C26.9156 18.9785 37.1034 19.2613 38.457 18.7982C39.1207 20.5468 41.5331 23.1189 43.2824 23.8263C42.6953 27.3878 42.8101 33.4965 43.2824 37.1999C41.3807 38.1383 39.4401 40.093 38.457 42.0477C36.0565 41.3921 26.9156 41.7131 26.9156 41.7131V44.4651C27.3878 46.3298 28.3836 46.7794 30.1328 46.9336C30.1328 46.9336 28.7282 49.5957 28.6775 51.164H20.4176C20.392 49.6339 18.9495 46.9336 18.9495 46.9336C20.5324 46.8569 21.835 45.9181 22.0771 44.4651V41.7131C22.0771 41.7131 19.1792 41.5978 16.9961 42.0477C16.3321 40.5561 13.9192 37.8812 12.1704 37.1999C12.566 36.1329 12.3873 29.4329 11.7871 28.0189H16.9957V34.8338L19.0257 37.1999H22.0767V23.1707C22.0767 23.1707 19.3958 23.0293 16.9957 23.2221C16.3065 21.8591 14.2379 19.6855 12.17 18.6571C12.8081 16.1882 12.8719 7.31538 12.17 4.98789C14.1485 4.03626 16.2427 2.03052 16.9957 0.693237C18.9108 1.59345 36.427 1.46491 38.457 0.693237C39.6822 2.48082 40.9847 3.4835 42.836 4.10091C42.6698 5.82421 42.7208 6.42839 43.2824 7.81747H38.457L36.427 5.54141H19.243L16.9961 7.52181V16.6767L19.243 18.8628L22.0771 18.9785C22.0771 15.5837 22.1157 14.9406 19.6259 14.2717C20.4555 12.6002 20.6218 12.4074 20.8387 10.3242C22.9708 11.0444 44.994 10.6588 45.9512 10.1056C45.7981 12.266 47.0105 16.3935 47.8404 17.924H43.0016C42.7591 16.2393 41.6994 14.9406 40.014 14.6192H26.9159V28.2374Z" fill="#212121"/>
</g>
</g>
</svg>
