<svg width="44" height="42" viewBox="0 0 44 42" fill="none" xmlns="http://www.w3.org/2000/svg">
<g id="Group">
<g id="Layer_71">
<path id="Shape" fill-rule="evenodd" clip-rule="evenodd" d="M33.3753 31.0625C34.532 29.9583 36.0679 29.3395 37.667 29.3333C41.1188 29.3333 43.917 32.1316 43.917 35.5833C43.917 39.0351 41.1188 41.8333 37.667 41.8333C34.2152 41.8333 31.417 39.0351 31.417 35.5833C31.3965 35.3129 31.3965 35.0413 31.417 34.7708L11.8337 24.0625C10.7325 26.0216 8.66431 27.2386 6.41699 27.25C2.96521 27.25 0.166992 24.4518 0.166992 21C0.166992 17.5482 2.96521 14.75 6.41699 14.75C8.66431 14.7614 10.7325 15.9784 11.8337 17.9375L31.417 7.22916C31.3965 6.95872 31.3965 6.68711 31.417 6.41666C31.4062 3.44957 33.483 0.883822 36.3872 0.276295C39.2915 -0.331232 42.2226 1.18693 43.402 3.90958C44.5814 6.63222 43.684 9.80883 41.2543 11.5119C38.8246 13.2149 35.5324 12.9749 33.3753 10.9375L14.9378 21L33.3753 31.0625ZM39.7503 6.41666C39.7503 5.26607 38.8176 4.33333 37.667 4.33333C36.5164 4.33333 35.5837 5.26607 35.5837 6.41666C35.5837 7.56726 36.5164 8.5 37.667 8.5C38.8176 8.5 39.7503 7.56726 39.7503 6.41666ZM6.41699 23.0833C5.2664 23.0833 4.33366 22.1506 4.33366 21C4.33366 19.8494 5.2664 18.9167 6.41699 18.9167C7.56759 18.9167 8.50033 19.8494 8.50033 21C8.50033 22.1506 7.56759 23.0833 6.41699 23.0833ZM35.5837 35.5833C35.5837 36.7339 36.5164 37.6667 37.667 37.6667C38.8176 37.6667 39.7503 36.7339 39.7503 35.5833C39.7503 34.4327 38.8176 33.5 37.667 33.5C36.5164 33.5 35.5837 34.4327 35.5837 35.5833Z" fill="#231F20"/>
</g>
</g>
</svg>
