<svg width="42" height="42" viewBox="0 0 42 42" fill="none" xmlns="http://www.w3.org/2000/svg">
<g id="Group">
<g id="Layer_126">
<path id="Shape" fill-rule="evenodd" clip-rule="evenodd" d="M0.166992 21C0.166992 9.49409 9.49439 0.166687 21.0003 0.166687C26.5257 0.166687 31.8247 2.36162 35.7317 6.26863C39.6387 10.1756 41.8337 15.4747 41.8337 21C41.8337 32.506 32.5063 41.8334 21.0003 41.8334C9.49439 41.8334 0.166992 32.506 0.166992 21ZM4.33366 21C4.33366 30.2048 11.7956 37.6667 21.0003 37.6667C25.4206 37.6667 29.6598 35.9107 32.7854 32.7851C35.911 29.6595 37.667 25.4203 37.667 21C37.667 11.7953 30.2051 4.33335 21.0003 4.33335C11.7956 4.33335 4.33366 11.7953 4.33366 21ZM33.3337 17.9167C33.0841 17.1755 32.4405 16.6364 31.667 16.5209L25.6045 15.5834L22.8753 9.77085C22.5553 9.0148 21.8211 8.51718 21.0003 8.50002C20.1942 8.5061 19.4639 8.97672 19.1253 9.70835L16.3753 15.5834L10.3128 16.5209C9.5363 16.6337 8.88903 17.1732 8.63826 17.9167C8.38748 18.6603 8.57575 19.4816 9.12533 20.0417L13.5837 24.5834L12.5212 31.0417C12.3738 31.8434 12.7075 32.6575 13.3753 33.125C13.7295 33.3723 14.1517 33.5033 14.5837 33.5C14.9353 33.5012 15.2807 33.4076 15.5837 33.2292L21.0003 30.2084L26.3962 33.1875C27.0915 33.5784 27.949 33.538 28.6045 33.0834C29.2723 32.6158 29.6061 31.8018 29.4587 31L28.417 24.5417L32.8545 20C33.3855 19.4467 33.5696 18.6464 33.3337 17.9167ZM24.1045 24.2084C23.9969 23.5557 24.2057 22.8907 24.667 22.4167L27.042 20.0209L23.8962 19.5417C23.2065 19.4421 22.6123 19.0042 22.3128 18.375L21.0003 15.5625L19.667 18.375C19.3715 18.9987 18.7864 19.4356 18.1045 19.5417L14.9378 20.0209L17.2087 22.4167C17.67 22.8907 17.8787 23.5557 17.7712 24.2084L17.2503 27.4792L19.8962 26.0209C20.5407 25.6487 21.3349 25.6487 21.9795 26.0209L24.6462 27.4792L24.1045 24.2084Z" fill="#212121"/>
</g>
</g>
</svg>
