<svg width="147" height="33" viewBox="0 0 147 33" fill="none" xmlns="http://www.w3.org/2000/svg">
<g id="verizon-5 1" clip-path="url(#clip0_253_1063)">
<path id="Vector" d="M143.757 0.0224609L135.727 17.3935L132.707 10.8115H129.441L134.407 21.5779H137.046L147 0.0224609H143.757Z" fill="#212121"/>
<path id="Vector_2" d="M109.311 32.2764H115.775V20.3112C115.775 17.5744 117.341 15.6518 119.667 15.6518C121.904 15.6518 123.067 17.2351 123.067 19.5195V32.2764H129.531V18.2755C129.531 13.5256 126.713 10.1781 122.15 10.1781C119.242 10.1781 117.206 11.4447 115.685 13.7518H115.551V10.8114H109.288L109.311 32.2764ZM96.6058 10.2233C89.8507 10.2233 85.3325 15.1316 85.3325 21.6004C85.3325 28.0241 89.8507 32.9775 96.6058 32.9775C103.361 32.9775 107.879 28.0241 107.879 21.6004C107.901 15.1316 103.361 10.2233 96.6058 10.2233ZM96.561 28.1372C93.4967 28.1372 91.8638 25.5361 91.8638 21.6004C91.8638 17.6196 93.4743 15.0637 96.561 15.0637C99.6254 15.0637 101.325 17.6196 101.325 21.6004C101.348 25.5361 99.6478 28.1372 96.561 28.1372ZM66.9016 32.2764H85.0641V27.1194H74.775V26.9836L84.6167 15.8327V10.7888H66.9016V15.9684H76.8551V16.1042L66.9016 27.3455V32.2764ZM58.6032 32.2764H65.1121V10.8114H58.6032V32.2764ZM43.505 32.2764H49.9916V22.4147C49.9916 17.9362 52.6534 15.9458 56.7019 16.5113H56.8361V10.8567C56.5006 10.721 56.1204 10.6983 55.5164 10.6983C52.9889 10.6983 51.289 11.8745 49.8351 14.3851H49.7009V10.8114H43.505V32.2764ZM31.6054 28.1598C28.7424 28.1598 26.9977 26.2825 26.6622 23.3873H41.9617C42.0064 18.7731 40.7985 15.0863 38.271 12.7792C36.4816 11.1055 34.133 10.1781 31.1357 10.1781C24.7386 10.1781 20.3098 15.0863 20.3098 21.51C20.3098 27.9789 24.5373 32.9097 31.5607 32.9097C34.2225 32.9097 36.325 32.1859 38.0697 30.9871C39.9262 29.6979 41.2683 27.7979 41.6261 25.9206H35.4079C34.804 27.3229 33.5067 28.1598 31.6054 28.1598ZM31.2699 14.8601C33.5514 14.8601 35.1172 16.5791 35.3856 19.0898H26.7069C27.2214 16.5565 28.5858 14.8601 31.2699 14.8601ZM7.38131 32.2764H14.1811L21.5624 10.8114H15.0534L10.9154 24.6087H10.8259L6.68792 10.8114H0L7.38131 32.2764ZM58.6032 3.16638H65.1121V9.00195H58.6032V3.16638Z" fill="#212121"/>
</g>
<defs>
<clipPath id="clip0_253_1063">
<rect width="147" height="33" fill="white"/>
</clipPath>
</defs>
</svg>
