<svg width="148" height="28" viewBox="0 0 148 28" fill="none" xmlns="http://www.w3.org/2000/svg">
<g clip-path="url(#clip0_253_803)">
<path d="M63.2936 0.337402C62.6548 0.337402 62.1111 0.555656 61.6825 0.988196C61.25 1.42074 61.0317 1.96042 61.0317 2.59931C61.0317 3.2382 61.25 3.74613 61.6825 4.1747C62.1111 4.60724 62.6548 4.8255 63.2936 4.8255C63.9325 4.8255 64.4405 4.60724 64.8809 4.18264C65.3294 3.7501 65.5555 3.21835 65.5555 2.60328C65.5555 1.9882 65.3294 1.41677 64.8809 0.984228C64.4365 0.555656 63.9048 0.341371 63.2936 0.341371V0.337402Z" fill="white"/>
<path d="M61.4443 9.02792V27.6271H65.107V7.91284L61.4443 9.02792Z" fill="white"/>
<path d="M35.3017 7.42456C32.4207 7.42456 29.9723 8.42059 28.0239 10.3809C26.0755 12.3412 25.0874 14.8095 25.0874 17.7103C25.0874 20.6111 26.0953 23.0833 28.0834 25.0436C30.0676 27.0039 32.5596 27.996 35.4882 27.996C37.6112 27.996 39.5199 27.4642 41.1549 26.4087C42.7898 25.3571 44.0398 23.9444 44.8692 22.2023L45.0596 21.8015L41.8771 20.4603L41.7025 20.8254C41.139 21.996 40.3096 22.9325 39.2342 23.6111C38.1588 24.2896 36.9088 24.6349 35.5239 24.6349C33.7144 24.6349 32.1668 24.0595 30.9168 22.9246C29.7779 21.8928 29.0676 20.5714 28.8096 18.996H45.4049L45.4326 18.6031C45.6668 15.4722 44.7898 12.7976 42.8295 10.6547C40.8652 8.51186 38.3334 7.42456 35.2977 7.42456H35.3017ZM39.5755 12.3492C40.6311 13.2817 41.3255 14.4484 41.6469 15.8254H28.9287C29.2858 14.4285 30.008 13.2579 31.0755 12.3333C32.266 11.3055 33.6866 10.7857 35.2977 10.7857C36.9088 10.7857 38.3969 11.3095 39.5715 12.3492" fill="white"/>
<path d="M75.1389 0L71.4762 1.12302V7.80159H67.2024V11.2024H71.4762V20.6389C71.4762 22.9722 72.0675 24.7381 73.2341 25.8929C74.3968 27.0437 76.1945 27.627 78.5754 27.627H80.9127V24.2262H78.5754C77.3254 24.2262 76.4286 23.9643 75.9127 23.4524C75.3968 22.9365 75.1389 22.0278 75.1389 20.754V11.2024H80.9127V7.80159H75.1389V0Z" fill="white"/>
<path d="M91.9247 7.42456C88.9961 7.42456 86.5041 8.41662 84.52 10.3769C82.5319 12.3373 81.5239 14.8055 81.5239 17.7103C81.5239 20.615 82.5319 23.0833 84.52 25.0436C86.5041 27.0039 88.9961 27.996 91.9247 27.996C94.8533 27.996 97.3454 27.0039 99.3295 25.0436C101.318 23.0833 102.326 20.615 102.326 17.7103C102.326 14.8055 101.318 12.3373 99.3295 10.3769C97.3454 8.41662 94.8533 7.42456 91.9247 7.42456ZM91.9247 24.5238C90.0239 24.5238 88.4763 23.8849 87.1827 22.5714C85.889 21.2539 85.262 19.6666 85.262 17.7142C85.262 15.7619 85.9088 14.1547 87.1827 12.8571C88.4723 11.5436 90.0239 10.9047 91.9247 10.9047C93.8255 10.9047 95.4049 11.5396 96.6827 12.8412C97.9446 14.1269 98.5874 15.7698 98.5874 17.7182C98.5874 19.6666 97.9485 21.3095 96.6827 22.5952C95.4049 23.8968 93.8493 24.5317 91.9247 24.5317V24.5238Z" fill="white"/>
<path d="M114.841 7.42456C113.103 7.42456 111.556 7.9325 110.234 8.93647C109.437 9.54361 108.774 10.2817 108.254 11.1428V7.79758H104.591V27.623H108.254V16.3611C108.254 14.7658 108.778 13.4801 109.853 12.4285C110.929 11.373 112.27 10.8611 113.944 10.8611C115.464 10.8611 116.698 11.3769 117.726 12.4365C118.758 13.5039 119.258 14.7857 119.258 16.3611V27.623H122.921V16.0238C122.921 13.5754 122.159 11.5079 120.651 9.88488C119.135 8.25393 117.183 7.42456 114.845 7.42456H114.841Z" fill="white"/>
<path d="M142.774 10.6586C140.81 8.51577 138.278 7.42847 135.242 7.42847C132.361 7.42847 129.913 8.4245 127.964 10.3848C126.016 12.3451 125.028 14.8134 125.028 17.7142C125.028 20.615 126.036 23.0872 128.024 25.0475C130.008 27.0078 132.5 27.9999 135.429 27.9999C137.552 27.9999 139.46 27.4681 141.095 26.4126C142.73 25.361 143.98 23.9483 144.81 22.2062L145 21.8055L141.818 20.4642L141.643 20.8293C141.079 21.9999 140.25 22.9364 139.175 23.615C138.099 24.2935 136.849 24.6388 135.464 24.6388C133.655 24.6388 132.107 24.0634 130.857 22.9285C129.718 21.8967 129.008 20.5753 128.75 18.9999H145.345L145.373 18.607C145.607 15.4761 144.73 12.8015 142.77 10.6586H142.774ZM131.016 12.3332C132.206 11.3055 133.627 10.7856 135.238 10.7856C136.849 10.7856 138.337 11.3094 139.512 12.3491C140.568 13.2816 141.262 14.4483 141.583 15.8253H128.865C129.222 14.4285 129.944 13.2578 131.012 12.3332H131.016Z" fill="white"/>
<path d="M147.714 26.881C147.714 27.508 147.222 28.0001 146.583 28.0001C145.944 28.0001 145.444 27.508 145.444 26.881C145.444 26.254 145.948 25.7778 146.583 25.7778C147.218 25.7778 147.714 26.2699 147.714 26.881ZM145.726 26.881C145.726 27.3731 146.091 27.762 146.587 27.762C147.083 27.762 147.428 27.3731 147.428 26.885C147.428 26.3969 147.071 25.9961 146.579 25.9961C146.087 25.9961 145.722 26.3929 145.722 26.877L145.726 26.881ZM146.409 27.4604H146.155V26.3572C146.254 26.3374 146.397 26.3255 146.579 26.3255C146.79 26.3255 146.881 26.3572 146.964 26.4048C147.024 26.4524 147.071 26.5397 147.071 26.6469C147.071 26.7699 146.976 26.8612 146.841 26.9008V26.9128C146.948 26.9524 147.008 27.0358 147.044 27.1826C147.075 27.3493 147.099 27.4167 147.123 27.4604H146.845C146.813 27.4207 146.79 27.3175 146.758 27.1905C146.738 27.0675 146.671 27.0159 146.528 27.0159H146.405V27.4604H146.409ZM146.413 26.8334H146.536C146.678 26.8334 146.794 26.7858 146.794 26.6707C146.794 26.5715 146.718 26.504 146.559 26.504C146.492 26.504 146.444 26.512 146.417 26.5159V26.8334H146.413Z" fill="white"/>
<path d="M21.9484 7.52783L10.9683 24.4921L13.2341 28.0001L26.4841 7.52783H21.9484Z" fill="white"/>
<path d="M12.9167 20.4762L4.53571 7.52783H0L8.38095 20.4762H12.9167Z" fill="white"/>
<path d="M58.8136 7.58333C56.9406 7.23809 55.2541 7.5238 53.8057 8.42857C52.8533 9.0238 52.0596 9.9246 51.4366 11.1151V7.81349L47.7739 8.92857V27.623H51.4366V16.3611C51.4366 14.4881 52.1231 13.0714 53.5319 12.0357C54.9525 10.9921 56.6271 10.7024 58.643 11.1508L59.1588 11.2659V7.64285L58.8096 7.57936L58.8136 7.58333Z" fill="white"/>
</g>
<defs>
<clipPath id="clip0_253_803">
<rect width="147.714" height="28" fill="white"/>
</clipPath>
</defs>
</svg>
