<svg width="42" height="42" viewBox="0 0 42 42" fill="none" xmlns="http://www.w3.org/2000/svg">
<path fill-rule="evenodd" clip-rule="evenodd" d="M40.3958 14.9778L37.6667 14.0819L38.9583 11.5403C39.369 10.7384 39.2177 9.76333 38.5833 9.12361L32.875 3.39444C32.2353 2.76004 31.2602 2.60874 30.4583 3.01944L27.9167 4.33194L27.0208 1.62361C26.7304 0.72915 25.8768 0.140142 24.9375 0.186105H16.9583C16.019 0.140142 15.1654 0.72915 14.875 1.62361L14.0833 4.33194L11.5417 3.01944C10.7398 2.60874 9.76474 2.76004 9.12501 3.39444L3.39584 9.12361C2.76144 9.76333 2.61014 10.7384 3.02084 11.5403L4.33334 14.0819L1.62501 14.9778C0.730554 15.2682 0.141546 16.1218 0.187509 17.0611V25.1444C0.141546 26.0837 0.730554 26.9374 1.62501 27.2278L4.33334 28.1236L3.04168 30.6653C2.63097 31.4672 2.78227 32.4422 3.41668 33.0819L9.12501 38.6028C9.76474 39.2372 10.7398 39.3885 11.5417 38.9778L14.0833 37.6653L14.9792 40.3736C15.2696 41.2681 16.1232 41.8571 17.0625 41.8111H25.1458C26.0851 41.8571 26.9388 41.2681 27.2292 40.3736L28.125 37.6653L30.6667 38.9569C31.4686 39.3676 32.4436 39.2163 33.0833 38.5819L38.8125 32.8528C39.4469 32.213 39.5982 31.238 39.1875 30.4361L37.6667 27.9153L40.375 27.0194C41.2695 26.729 41.8585 25.8754 41.8125 24.9361V16.9569C41.8148 16.0613 41.2444 15.2644 40.3958 14.9778ZM10.5834 20.999C10.5834 15.246 15.2471 10.5823 21.0001 10.5823C23.7627 10.5823 26.4123 11.6798 28.3658 13.6333C30.3193 15.5868 31.4167 18.2363 31.4167 20.999C31.4167 26.752 26.753 31.4157 21.0001 31.4157C15.2471 31.4157 10.5834 26.752 10.5834 20.999ZM14.75 20.998C14.75 24.4498 17.5482 27.248 21 27.248C22.6576 27.248 24.2473 26.5895 25.4194 25.4174C26.5915 24.2453 27.25 22.6556 27.25 20.998C27.25 17.5462 24.4518 14.748 21 14.748C17.5482 14.748 14.75 17.5462 14.75 20.998ZM36.3959 23.9573L37.6667 23.5407V18.4573L36.3959 18.0407C35.2393 17.6673 34.3033 16.8074 33.8334 15.6865C33.3718 14.5611 33.4251 13.2902 33.9792 12.2073L34.5834 10.999L31.0001 7.41567L29.7917 8.01984C28.7087 8.56589 27.4416 8.61296 26.3211 8.14875C25.2006 7.68453 24.3379 6.75512 23.9584 5.60317L23.5417 4.33234H18.4584L18.0417 5.60317C17.6622 6.75512 16.7996 7.68453 15.6791 8.14875C14.5586 8.61296 13.2914 8.56589 12.2084 8.01984L11.0001 7.41567L7.41673 10.999L8.0209 12.2073C8.57502 13.2902 8.62829 14.5611 8.16673 15.6865C7.6968 16.8074 6.76087 17.6673 5.60423 18.0407L4.3334 18.4573V23.5407L5.60423 23.9573C6.76087 24.3308 7.6968 25.1906 8.16673 26.3115C8.62829 27.4369 8.57502 28.7078 8.0209 29.7907L7.41673 30.999L11.0001 34.5823L12.2084 33.9782C13.2914 33.4321 14.5586 33.385 15.6791 33.8493C16.7996 34.3135 17.6622 35.2429 18.0417 36.3948L18.4584 37.6657H23.5417L23.9584 36.3948C24.3379 35.2429 25.2006 34.3135 26.3211 33.8493C27.4416 33.385 28.7087 33.4321 29.7917 33.9782L31.0001 34.5823L34.5834 30.999L33.9792 29.7907C33.4251 28.7078 33.3718 27.4369 33.8334 26.3115C34.3033 25.1906 35.2393 24.3308 36.3959 23.9573Z" fill="#212121"/>
</svg>
