<svg width="27" height="27" viewBox="0 0 27 27" fill="none" xmlns="http://www.w3.org/2000/svg">
<g id="icon_sports 1" clip-path="url(#clip0_2088_3968)">
<g id="Layer 2">
<path id="Vector" d="M13.5 0C6.05599 0 0 6.05599 0 13.5C0 20.944 6.05599 27 13.5 27C20.944 27 27 20.944 27 13.5C27 6.05599 20.944 0 13.5 0ZM24.9085 13.5C24.9085 13.5 24.9085 13.5856 24.9085 13.6236C19.4419 12.3306 15.4014 7.75775 14.8025 2.16761C20.4877 2.81408 24.918 7.64366 24.918 13.5H24.9085ZM2.12007 14.175C8.06197 14.6504 12.9486 19.0331 14.0704 24.8799C13.8803 24.8894 13.6901 24.9085 13.5 24.9085C7.43451 24.9085 2.47183 20.1454 2.12007 14.175ZM16.1334 24.5947C14.869 17.7306 9.14577 12.5968 2.17711 12.093C2.85211 6.72148 7.25387 2.50986 12.7014 2.12958C13.3099 8.81303 18.1394 14.2891 24.6898 15.7151C23.8246 20.0884 20.4496 23.5585 16.143 24.5947H16.1334Z" fill="#8257EF"/>
</g>
</g>
<defs>
<clipPath id="clip0_2088_3968">
<rect width="27" height="27" fill="white"/>
</clipPath>
</defs>
</svg>
