<svg width="27" height="41" viewBox="0 0 27 41" fill="none" xmlns="http://www.w3.org/2000/svg">
<g id="icon_discovery 1" clip-path="url(#clip0_2075_3505)">
<g id="Layer 2">
<path id="Vector" d="M23.3849 4.3617C20.8431 1.58737 17.2422 0 13.5 0C10.1815 0 6.97594 1.22986 4.51883 3.47506C4.17992 3.77537 3.86925 4.08999 3.55858 4.43321C1.2568 6.95012 0 10.2393 0 13.6714C0 14.8441 0.141213 16.0024 0.437761 17.1036C0.762552 18.3764 1.2568 19.5919 1.93462 20.7217L1.96287 20.7646C2.44299 21.6941 3.09257 22.4806 3.65743 23.1814C4.41998 24.1109 5.21077 25.0691 5.67678 26.4705L6.10042 27.5002V34.1214C6.10042 35.6087 7.10303 36.8528 8.44456 37.2246L8.81172 37.9969C9.67312 39.8273 11.5089 41.0143 13.5141 41.0143C15.5194 41.0143 17.3551 39.8273 18.2165 37.9969L18.5413 37.2246C19.897 36.8528 20.9137 35.6087 20.9137 34.1071V28.4726L20.9561 27.5288H20.9843L21.3373 26.4562C21.7892 25.0548 22.5941 24.0966 23.3708 23.1528C23.9498 22.452 24.5994 21.6655 25.1077 20.6788C26.3504 18.5623 27.0141 16.1454 27.0141 13.6714C27.0141 10.2107 25.7291 6.89292 23.3991 4.3617H23.3849ZM17.7788 29.9885C17.7788 30.8465 17.7505 32.1765 17.7223 34.2072H9.27772L9.19299 34.1214V30.0028H17.7646L17.7788 29.9885ZM12.2997 37.3533H14.7286C14.3755 37.625 13.966 37.7966 13.5141 37.7966C13.0622 37.7966 12.6527 37.625 12.2997 37.3533ZM22.3682 19.0342L22.2694 19.2201C21.9446 19.8636 21.4503 20.4642 20.9137 21.1078C19.9817 22.2375 18.9226 23.5246 18.3013 25.4838L17.92 26.8423H15.0957V20.9505L17.8776 18.1332L18.9791 16.9606L17.8776 15.8451L17.3692 15.3875H16.0842L13.5141 17.9902L11.3959 15.8451L10.8876 15.3875H9.60251L8.04916 17.0178L11.9184 20.9362V25.9557L11.9608 26.828H9.15063L8.71287 25.4695C8.07741 23.5103 7.03243 22.2232 6.10042 21.0935C5.54969 20.4213 5.06956 19.835 4.73065 19.1772L4.6318 19.0056C4.13755 18.1618 3.75628 17.2466 3.51621 16.2742C3.30439 15.4304 3.19142 14.5438 3.19142 13.6571C3.19142 11.0401 4.15167 8.52319 5.91684 6.5783C6.14278 6.32089 6.38284 6.09208 6.63703 5.86327C8.52929 4.14719 10.9723 3.20335 13.5141 3.20335C16.3666 3.20335 19.1203 4.4189 21.069 6.5354C22.8483 8.48029 23.8368 10.9972 23.8368 13.6571C23.8368 15.5448 23.3285 17.4039 22.3823 19.0199L22.3682 19.0342Z" fill="black"/>
</g>
</g>
<defs>
<clipPath id="clip0_2075_3505">
<rect width="27" height="41" fill="white"/>
</clipPath>
</defs>
</svg>
