<svg width="42" height="42" viewBox="0 0 42 42" fill="none" xmlns="http://www.w3.org/2000/svg">
<g id="Group">
<g id="Layer_27">
<path id="Shape" fill-rule="evenodd" clip-rule="evenodd" d="M40.3944 14.9791L37.6653 14.0833L38.9569 11.5416C39.3676 10.7397 39.2163 9.76471 38.5819 9.12498L32.8736 3.39581C32.2339 2.76141 31.2588 2.61011 30.4569 3.02081L27.9153 4.33331L27.0194 1.62498C26.729 0.730523 25.8754 0.141516 24.9361 0.187478H16.9569C16.0176 0.141516 15.164 0.730523 14.8736 1.62498L14.0819 4.33331L11.5403 3.02081C10.7384 2.61011 9.76333 2.76141 9.12361 3.39581L3.39444 9.12498C2.76004 9.76471 2.60874 10.7397 3.01944 11.5416L4.33194 14.0833L1.62361 14.9791C0.72915 15.2696 0.140142 16.1232 0.186105 17.0625V25.1458C0.140142 26.0851 0.72915 26.9387 1.62361 27.2291L4.33194 28.125L3.04027 30.6666C2.62957 31.4685 2.78087 32.4436 3.41527 33.0833L9.12361 38.6041C9.76333 39.2386 10.7384 39.3899 11.5403 38.9791L14.0819 37.6666L14.9778 40.375C15.2682 41.2694 16.1218 41.8584 17.0611 41.8125H25.1444C26.0837 41.8584 26.9374 41.2694 27.2278 40.375L28.1236 37.6666L30.6653 38.9583C31.4672 39.369 32.4422 39.2177 33.0819 38.5833L38.8111 32.8541C39.4455 32.2144 39.5968 31.2394 39.1861 30.4375L37.6653 27.9166L40.3736 27.0208C41.2681 26.7304 41.8571 25.8768 41.8111 24.9375V16.9583C41.8134 16.0627 41.243 15.2658 40.3944 14.9791ZM10.5823 21C10.5823 15.247 15.246 10.5833 20.999 10.5833C23.7617 10.5833 26.4112 11.6808 28.3647 13.6343C30.3182 15.5878 31.4157 18.2373 31.4157 21C31.4157 26.7529 26.752 31.4166 20.999 31.4166C15.246 31.4166 10.5823 26.7529 10.5823 21ZM14.748 21C14.748 24.4517 17.5462 27.25 20.998 27.25C22.6556 27.25 24.2453 26.5915 25.4174 25.4194C26.5895 24.2473 27.248 22.6576 27.248 21C27.248 17.5482 24.4498 14.75 20.998 14.75C17.5462 14.75 14.748 17.5482 14.748 21ZM36.3948 23.9583L37.6657 23.5416V18.4583L36.3948 18.0416C35.2382 17.6682 34.3023 16.8084 33.8323 15.6875C33.3708 14.5621 33.424 13.2911 33.9782 12.2083L34.5823 11L30.999 7.41663L29.7907 8.0208C28.7077 8.56686 27.4405 8.61392 26.32 8.14971C25.1995 7.6855 24.3369 6.75609 23.9573 5.60413L23.5407 4.3333H18.4573L18.0407 5.60413C17.6611 6.75609 16.7985 7.6855 15.678 8.14971C14.5575 8.61392 13.2903 8.56686 12.2073 8.0208L10.999 7.41663L7.41567 11L8.01984 12.2083C8.57396 13.2911 8.62723 14.5621 8.16567 15.6875C7.69574 16.8084 6.75981 17.6682 5.60317 18.0416L4.33234 18.4583V23.5416L5.60317 23.9583C6.75981 24.3317 7.69574 25.1916 8.16567 26.3125C8.62723 27.4379 8.57396 28.7088 8.01984 29.7916L7.41567 31L10.999 34.5833L12.2073 33.9791C13.2903 33.4331 14.5575 33.386 15.678 33.8502C16.7985 34.3144 17.6611 35.2439 18.0407 36.3958L18.4573 37.6666H23.5407L23.9573 36.3958C24.3369 35.2439 25.1995 34.3144 26.32 33.8502C27.4405 33.386 28.7077 33.4331 29.7907 33.9791L30.999 34.5833L34.5823 31L33.9782 29.7916C33.424 28.7088 33.3708 27.4379 33.8323 26.3125C34.3023 25.1916 35.2382 24.3317 36.3948 23.9583Z" fill="#212121"/>
</g>
</g>
</svg>
