<svg width="28" height="28" viewBox="0 0 28 28" fill="none" xmlns="http://www.w3.org/2000/svg">
<g id="Group">
<g id="Layer_80">
<path id="Shape" fill-rule="evenodd" clip-rule="evenodd" d="M23.3332 5.99996H21.9998V4.66663C21.9998 2.45749 20.209 0.666626 17.9998 0.666626H4.6665C2.45736 0.666626 0.666504 2.45749 0.666504 4.66663V14C0.666504 16.2091 2.45736 18 4.6665 18V20.6666C4.66803 21.1687 4.95146 21.6274 5.39984 21.8533C5.58384 21.9531 5.79053 22.0036 5.99984 22C6.28833 22 6.56904 21.9064 6.79984 21.7333C7.55525 22.7405 8.74081 23.3333 9.99984 23.3333H16.2265L21.1998 27.0666C21.4306 27.2397 21.7113 27.3333 21.9998 27.3333C22.2091 27.337 22.4158 27.2865 22.5998 27.1866C23.0482 26.9607 23.3316 26.502 23.3332 26V23.3333C25.5423 23.3333 27.3332 21.5424 27.3332 19.3333V9.99996C27.3332 7.79082 25.5423 5.99996 23.3332 5.99996ZM7.33317 18V16.6666C7.33317 15.9302 6.73622 15.3333 5.99984 15.3333H4.6665C3.93012 15.3333 3.33317 14.7363 3.33317 14V4.66663C3.33317 3.93025 3.93012 3.33329 4.6665 3.33329H17.9998C18.7362 3.33329 19.3332 3.93025 19.3332 4.66663V14C19.3332 14.7363 18.7362 15.3333 17.9998 15.3333H11.3332C11.0447 15.3333 10.764 15.4269 10.5332 15.6L7.33317 18ZM23.3332 20.6666C24.0695 20.6666 24.6665 20.0697 24.6665 19.3333V9.99996C24.6665 9.26358 24.0695 8.66663 23.3332 8.66663H21.9998V14C21.9998 16.2091 20.209 18 17.9998 18H11.7732L8.95984 20.12C9.2032 20.4533 9.58724 20.6552 9.99984 20.6666H16.6665C16.955 20.6666 17.2357 20.7602 17.4665 20.9333L20.6665 23.3333V22C20.6665 21.2636 21.2635 20.6666 21.9998 20.6666H23.3332Z" fill="#FA524D"/>
</g>
</g>
</svg>
