<svg width="18" height="17" viewBox="0 0 18 17" fill="none" xmlns="http://www.w3.org/2000/svg">
<path d="M16.4998 8.58333C16.4998 12.4953 13.3285 15.6667 9.41652 15.6667C8.5192 15.6667 7.66086 15.4998 6.87081 15.1954C6.72637 15.1398 6.65414 15.112 6.59671 15.0987C6.54022 15.0857 6.49933 15.0803 6.4414 15.0781C6.3825 15.0758 6.31789 15.0825 6.18865 15.0958L1.92113 15.537C1.51427 15.579 1.31083 15.6001 1.19083 15.5269C1.08631 15.4631 1.01512 15.3566 0.996165 15.2356C0.974408 15.0968 1.07162 14.9168 1.26605 14.557L2.62909 12.034C2.74135 11.8262 2.79747 11.7223 2.82289 11.6225C2.848 11.5238 2.85407 11.4527 2.84604 11.3512C2.83791 11.2484 2.79282 11.1147 2.70266 10.8472C2.46306 10.1363 2.33318 9.375 2.33318 8.58333C2.33318 4.67132 5.5045 1.5 9.41652 1.5C13.3285 1.5 16.4998 4.67132 16.4998 8.58333Z" stroke="#212121" stroke-width="1.66667" stroke-linecap="round" stroke-linejoin="round"/>
</svg>
