<svg width="42" height="42" viewBox="0 0 42 42" fill="none" xmlns="http://www.w3.org/2000/svg">
<g id="Group">
<g id="Layer_26">
<path id="Shape" fill-rule="evenodd" clip-rule="evenodd" d="M31.4165 10.5833C31.4165 4.83033 26.7528 0.166626 20.9998 0.166626C15.2469 0.166626 10.5832 4.83033 10.5832 10.5833C10.5832 16.3363 15.2469 21 20.9998 21H18.9165C8.56116 21 0.166504 29.3946 0.166504 39.75C0.166504 40.9006 1.09924 41.8333 2.24984 41.8333H39.7498C40.9004 41.8333 41.8332 40.9006 41.8332 39.75C41.8332 29.3946 33.4385 21 23.0832 21H20.9998C23.7625 21 26.412 19.9025 28.3655 17.949C30.319 15.9955 31.4165 13.346 31.4165 10.5833ZM18.9165 25.1666C11.6657 25.1648 5.51483 30.4902 4.479 37.6666H37.5207C36.4848 30.4902 30.334 25.1648 23.0832 25.1666H18.9165ZM14.7498 10.5833C14.7498 14.0351 17.5481 16.8333 20.9998 16.8333C22.6574 16.8333 24.2472 16.1748 25.4193 15.0027C26.5914 13.8306 27.2498 12.2409 27.2498 10.5833C27.2498 7.13151 24.4516 4.33329 20.9998 4.33329C17.5481 4.33329 14.7498 7.13151 14.7498 10.5833Z" fill="white"/>
</g>
</g>
</svg>
