<svg width="28" height="22" viewBox="0 0 28 22" fill="none" xmlns="http://www.w3.org/2000/svg">
<g id="Group">
<g id="Layer_87">
<path id="Shape" fill-rule="evenodd" clip-rule="evenodd" d="M23.3332 11C23.3332 12.4728 24.5271 13.6667 25.9998 13.6667C26.7362 13.6667 27.3332 14.2637 27.3332 15V17.6667C27.3332 19.8758 25.5423 21.6667 23.3332 21.6667H4.6665C2.45736 21.6667 0.666504 19.8758 0.666504 17.6667V15C0.666504 14.2637 1.26346 13.6667 1.99984 13.6667C3.4726 13.6667 4.6665 12.4728 4.6665 11C4.6665 9.52728 3.4726 8.33337 1.99984 8.33337C1.26346 8.33337 0.666504 7.73642 0.666504 7.00004V4.33337C0.666504 2.12423 2.45736 0.333374 4.6665 0.333374H23.3332C25.5423 0.333374 27.3332 2.12423 27.3332 4.33337V7.00004C27.3332 7.73642 26.7362 8.33337 25.9998 8.33337C24.5271 8.33337 23.3332 9.52728 23.3332 11ZM17.9998 9.66671V12.3334C17.9998 13.0698 17.4029 13.6667 16.6665 13.6667C15.9301 13.6667 15.3332 13.0698 15.3332 12.3334V9.66671C15.3332 8.93033 15.9301 8.33337 16.6665 8.33337C17.4029 8.33337 17.9998 8.93033 17.9998 9.66671ZM24.6665 5.84004C22.3132 6.44767 20.6683 8.56953 20.6665 11C20.6683 13.4306 22.3132 15.5524 24.6665 16.16V17.6667C24.6665 18.4031 24.0695 19 23.3332 19H17.9998V17.6667C17.9998 16.9303 17.4029 16.3334 16.6665 16.3334C15.9301 16.3334 15.3332 16.9303 15.3332 17.6667V19H4.6665C3.93012 19 3.33317 18.4031 3.33317 17.6667V16.16C5.68042 15.5465 7.31786 13.4261 7.31786 11C7.31786 8.57394 5.68042 6.45353 3.33317 5.84004V4.33337C3.33317 3.59699 3.93012 3.00004 4.6665 3.00004H15.3332V4.33337C15.3332 5.06975 15.9301 5.66671 16.6665 5.66671C17.4029 5.66671 17.9998 5.06975 17.9998 4.33337V3.00004H23.3332C24.0695 3.00004 24.6665 3.59699 24.6665 4.33337V5.84004Z" fill="#8257EF"/>
</g>
</g>
</svg>
