<svg width="55" height="47" viewBox="0 0 55 47" fill="none" xmlns="http://www.w3.org/2000/svg">
<g clip-path="url(#clip0_136_4373)">
<path d="M25.357 41.0727C25.118 41.0727 24.8618 40.9853 24.674 40.8454C24.3837 40.6181 24.213 40.2684 24.213 39.9012V15.7193C24.213 15.1947 24.5545 14.7401 25.0326 14.6002L42.4496 9.40717C43.0643 9.21483 43.6961 9.58202 43.8668 10.2115C44.0376 10.8409 43.6961 11.4879 43.0813 11.6627L26.484 16.611V38.3625L34.7485 35.8971C35.3632 35.7223 35.995 36.072 36.1658 36.7014C36.3365 37.3309 35.995 37.9779 35.3803 38.1527L25.6473 41.0552C25.5449 41.0902 25.4424 41.1077 25.3229 41.1077L25.357 41.0727Z" fill="black"/>
<path d="M42.7911 24.3217C42.1593 24.3217 41.647 23.7971 41.647 23.1502V18.8663C41.647 18.2194 42.1593 17.6948 42.7911 17.6948C43.4228 17.6948 43.9351 18.2194 43.9351 18.8663V23.1502C43.9351 23.7971 43.4228 24.3217 42.7911 24.3217Z" fill="black"/>
<path d="M32.1701 23.2027C31.8969 23.2027 31.6066 23.0978 31.4017 22.9055L24.6057 16.5933C24.2983 16.3136 24.1617 15.8764 24.2642 15.4568C24.3666 15.0372 24.6569 14.7049 25.0667 14.6L42.4837 9.40695C42.8594 9.28455 43.2692 9.38946 43.5765 9.66923L50.3725 15.9814C50.6799 16.2611 50.8165 16.6982 50.7141 17.1179C50.6116 17.5375 50.3213 17.8697 49.9115 17.9747L32.4946 23.1677C32.3921 23.2027 32.2897 23.2202 32.1701 23.2202V23.2027ZM27.6622 16.2436L32.4604 20.7198L47.299 16.2961L42.5008 11.8374L27.6622 16.2611V16.2436Z" fill="black"/>
<path d="M18.561 23.2028C18.4585 23.2028 18.339 23.2028 18.2366 23.1504L0.819617 17.9573C0.426882 17.8349 0.119524 17.5027 0.0170712 17.1005C-0.068306 16.6809 0.0512221 16.2613 0.35858 15.964L7.15461 9.65187C7.44489 9.37211 7.87178 9.28469 8.24743 9.3896L25.6644 14.5827C26.0571 14.7051 26.3645 15.0373 26.4669 15.4394C26.5523 15.8591 26.4328 16.2787 26.1254 16.576L19.3294 22.8881C19.1074 23.0804 18.8342 23.1854 18.561 23.1854V23.2028ZM3.43216 16.2962L18.2707 20.72L23.0689 16.2438L8.24743 11.8375L3.44924 16.2962H3.43216Z" fill="black"/>
<path d="M7.94008 11.6975C7.73517 11.6975 7.53027 11.6451 7.35951 11.5227L0.563486 7.37868C0.170751 7.13389 -0.0512296 6.67928 -3.2736e-06 6.22466C0.0512231 5.77005 0.375656 5.38538 0.819618 5.2455L18.2366 0.0524153C18.5439 -0.0350103 18.8684 -4.00702e-05 19.1416 0.174811L25.9376 4.33627C26.3303 4.58106 26.5523 5.03567 26.484 5.49029C26.4328 5.9449 26.1083 6.32957 25.6644 6.46945L8.26451 11.6451C8.16206 11.68 8.05961 11.6975 7.94008 11.6975ZM3.99565 6.73173L8.11083 9.24959L22.5225 4.96573L18.4073 2.44788L3.99565 6.73173Z" fill="black"/>
<path d="M42.774 11.6975C42.6715 11.6975 42.552 11.6975 42.4495 11.645L25.0497 6.46945C24.6057 6.34706 24.2983 5.96239 24.23 5.49029C24.1788 5.03567 24.3837 4.58106 24.7765 4.33627L31.5725 0.174811C31.8457 -4.00702e-05 32.1701 -0.0350103 32.4775 0.0524153L49.8944 5.2455C50.3384 5.36789 50.6458 5.75256 50.7141 6.22466C50.7653 6.67928 50.5604 7.13389 50.1676 7.37868L43.3716 11.5401C43.2009 11.645 42.996 11.715 42.791 11.715L42.774 11.6975ZM28.1915 4.96573L42.6032 9.24959L46.7184 6.73173L32.3238 2.44788L28.2086 4.96573H28.1915Z" fill="black"/>
<path d="M25.357 41.0727C25.2546 41.0727 25.135 41.0727 25.0326 41.0202L7.61564 35.8271C7.12045 35.6873 6.79602 35.2152 6.79602 34.7081V18.8666C6.79602 18.2196 7.30828 17.6951 7.94008 17.6951C8.57187 17.6951 9.08413 18.2196 9.08413 18.8666V33.8338L24.213 38.345V16.5935L7.63272 11.6452C7.018 11.4704 6.67649 10.8059 6.84725 10.194C7.018 9.5645 7.64979 9.21479 8.26451 9.38964L25.6815 14.5827C26.1766 14.7226 26.5011 15.1947 26.5011 15.7018V39.8837C26.5011 40.2509 26.3303 40.6006 26.04 40.8279C25.8351 40.9853 25.5961 41.0552 25.357 41.0552V41.0727Z" fill="black"/>
<path d="M44.3791 46.9999H41.203C40.6396 46.9999 40.1614 46.5803 40.0761 46.0207L39.615 43.3105C39.376 43.2231 39.154 43.1357 38.932 43.0308L36.7464 44.6219C36.2853 44.9541 35.6706 44.9017 35.2779 44.4995L33.041 42.209C32.6483 41.8068 32.597 41.1774 32.9215 40.7053L34.4582 38.4672C34.3558 38.2399 34.2533 37.9951 34.168 37.7503L31.5383 37.2957C30.9919 37.1908 30.5821 36.7187 30.5821 36.1416V32.8894C30.5821 32.3124 30.9919 31.8228 31.5383 31.7354L34.1338 31.2808C34.2192 31.0185 34.3216 30.7737 34.4412 30.5289L32.9385 28.3433C32.6141 27.8712 32.6653 27.2417 33.0581 26.8396L35.2949 24.5315C35.6877 24.1294 36.3195 24.0769 36.7634 24.4091L38.8808 25.9478C39.1369 25.8254 39.3931 25.7205 39.6492 25.6156L40.0931 22.9928C40.1956 22.4333 40.6566 22.0137 41.2201 22.0137H44.3962C44.9596 22.0137 45.4378 22.4333 45.5231 22.9928L45.9671 25.6156C46.2232 25.7205 46.4964 25.8254 46.7355 25.9478L48.8528 24.4091C49.3139 24.0769 49.9286 24.1294 50.3213 24.5315L52.5582 26.8396C52.951 27.2417 53.0022 27.8712 52.6777 28.3433L51.1751 30.5289C51.2946 30.7737 51.3971 31.036 51.4825 31.2983L54.0779 31.7529C54.6243 31.8578 55.0342 32.3299 55.0342 32.9069V36.1591C55.0342 36.7361 54.6243 37.2257 54.0779 37.3132L51.4654 37.7678C51.38 38.0126 51.2776 38.2573 51.1751 38.4847L52.7119 40.7227C53.0363 41.1948 52.9851 41.8243 52.5924 42.2265L50.3555 44.517C49.9628 44.9192 49.348 44.9716 48.887 44.6394L46.6843 43.0483C46.4623 43.1532 46.2403 43.2581 46.0012 43.328L45.5402 46.0382C45.4378 46.5977 44.9767 47.0174 44.4132 47.0174L44.3791 46.9999ZM42.1764 44.6569H43.4229L43.8327 42.2265C43.901 41.7719 44.2254 41.4222 44.6523 41.2998C45.1816 41.1424 45.6939 40.9326 46.1891 40.6528C46.5647 40.4255 47.0429 40.4605 47.4014 40.7227L49.3651 42.139L50.236 41.2473L48.8528 39.2365C48.5967 38.8693 48.5796 38.3797 48.7845 37.9776C49.0578 37.4705 49.2797 36.9285 49.4334 36.3864C49.5529 35.9493 49.9115 35.6171 50.3384 35.5472L52.6948 35.1275V33.8511L50.3726 33.4315C49.9286 33.3615 49.57 33.0118 49.4676 32.5747C49.331 32.0152 49.109 31.4731 48.8187 30.9661C48.5967 30.5639 48.6309 30.0743 48.887 29.7071L50.236 27.7313L49.3651 26.8396L47.4697 28.2209C47.1112 28.4832 46.616 28.5181 46.2403 28.2733C45.7451 27.9761 45.2158 27.7488 44.6352 27.5914C44.2083 27.469 43.8839 27.1018 43.8156 26.6647L43.4229 24.3217H42.1764L41.7836 26.6647C41.7153 27.1193 41.3909 27.469 40.964 27.5914C40.4005 27.7488 39.8712 27.9761 39.3589 28.2733C38.9662 28.5007 38.4881 28.4832 38.1295 28.2209L36.2341 26.8396L35.3632 27.7488L36.7122 29.7071C36.9683 30.0743 36.9854 30.5639 36.7805 30.9661C36.5073 31.4731 36.2853 32.0152 36.1316 32.5747C36.0121 33.0118 35.6535 33.344 35.2266 33.4315L32.8873 33.8511V35.1275L35.2437 35.5472C35.6706 35.6171 36.0292 35.9493 36.1487 36.3864C36.3024 36.946 36.5244 37.4705 36.7976 37.9776C37.0196 38.3797 36.9854 38.8693 36.7464 39.2365L35.3632 41.2473L36.2341 42.139L38.1978 40.7227C38.5564 40.4605 39.0345 40.443 39.4272 40.6528C39.9053 40.9326 40.4176 41.1424 40.964 41.2998C41.3909 41.4222 41.7153 41.7893 41.7836 42.2265L42.1934 44.6569H42.1764Z" fill="black"/>
<path d="M42.774 38.5896C40.5713 38.5896 38.7613 36.7536 38.7613 34.4806C38.7613 32.2075 40.5542 30.3716 42.774 30.3716C44.9938 30.3716 46.7867 32.2075 46.7867 34.4806C46.7867 36.7536 44.9938 38.5896 42.774 38.5896ZM42.774 32.7146C41.8178 32.7146 41.0494 33.5014 41.0494 34.4806C41.0494 35.4597 41.8178 36.2466 42.774 36.2466C43.7302 36.2466 44.4986 35.4597 44.4986 34.4806C44.4986 33.5014 43.7302 32.7146 42.774 32.7146Z" fill="black"/>
</g>
<defs>
<clipPath id="clip0_136_4373">
<rect width="55" height="47" fill="white"/>
</clipPath>
</defs>
</svg>
