<svg width="42" height="34" viewBox="0 0 42 34" fill="none" xmlns="http://www.w3.org/2000/svg">
<g id="Group">
<g id="Layer_68">
<path id="Path" d="M41.8332 2.41665V10.75C41.8332 11.9006 40.9004 12.8333 39.7498 12.8333C38.5992 12.8333 37.6665 11.9006 37.6665 10.75V7.66665L24.6457 22.5416C24.2507 22.9912 23.6815 23.2492 23.0832 23.25C22.5048 23.2648 21.9463 23.0383 21.5415 22.625L16.8748 17.9166L3.74982 32.9583C3.26934 33.5549 2.50025 33.8396 1.74713 33.6998C0.994014 33.56 0.378345 33.0183 0.14394 32.289C-0.0904644 31.5598 0.0942056 30.7607 0.624819 30.2083L15.2082 13.5416C15.5874 13.1071 16.1299 12.8493 16.7064 12.8295C17.2828 12.8098 17.8417 13.0299 18.2498 13.4375L23.0832 18.1041L34.8957 4.49998H31.4165C30.2659 4.49998 29.3332 3.56724 29.3332 2.41665C29.3332 1.26605 30.2659 0.333313 31.4165 0.333313H39.7498C40.9004 0.333313 41.8332 1.26605 41.8332 2.41665Z" fill="#231F20"/>
</g>
</g>
</svg>
