<svg width="22" height="28" viewBox="0 0 22 28" fill="none" xmlns="http://www.w3.org/2000/svg">
<g id="Group">
<g id="Layer_100">
<path id="Shape" fill-rule="evenodd" clip-rule="evenodd" d="M17.6668 12.6666C17.6668 16.3485 14.6821 19.3333 11.0002 19.3333C7.31826 19.3333 4.3335 16.3485 4.3335 12.6666V7.33329C4.3335 3.65139 7.31826 0.666626 11.0002 0.666626C14.6821 0.666626 17.6668 3.65139 17.6668 7.33329V12.6666ZM11.0002 3.33329C8.79102 3.33329 7.00016 5.12415 7.00016 7.33329V12.6666C7.00016 14.8758 8.79102 16.6666 11.0002 16.6666C13.2093 16.6666 15.0002 14.8758 15.0002 12.6666V7.33329C15.0002 5.12415 13.2093 3.33329 11.0002 3.33329ZM16.3335 26C16.3335 26.7363 15.7365 27.3333 15.0002 27.3333H7.00016C6.26378 27.3333 5.66683 26.7363 5.66683 26C5.66683 25.2636 6.26378 24.6666 7.00016 24.6666H15.0002C15.7365 24.6666 16.3335 25.2636 16.3335 26ZM11.0002 23.3333C16.8912 23.3333 21.6668 18.5577 21.6668 12.6666C21.6668 11.9302 21.0699 11.3333 20.3335 11.3333C19.5971 11.3333 19.0002 11.9302 19.0002 12.6666C19.0002 17.0849 15.4184 20.6666 11.0002 20.6666C6.58188 20.6666 3.00016 17.0849 3.00016 12.6666C3.00016 11.9302 2.40321 11.3333 1.66683 11.3333C0.93045 11.3333 0.333496 11.9302 0.333496 12.6666C0.333496 18.5577 5.10913 23.3333 11.0002 23.3333Z" fill="#FA524D"/>
</g>
</g>
</svg>
