<svg width="42" height="42" viewBox="0 0 42 42" fill="none" xmlns="http://www.w3.org/2000/svg">
<g id="Group">
<g id="Layer_92">
<path id="Shape" fill-rule="evenodd" clip-rule="evenodd" d="M15.4584 35.375L39.8959 10.9375C41.5681 9.3794 42.2564 7.03285 41.6908 4.81841C41.1253 2.60396 39.3961 0.874801 37.1817 0.30927C34.9672 -0.25626 32.6207 0.43204 31.0626 2.10415L6.56261 26.6042C6.40591 26.7652 6.27266 26.9476 6.16677 27.1458L0.375107 38.8333C0.0583951 39.4797 0.0977791 40.2438 0.479271 40.8542C0.860762 41.4645 1.53031 41.8348 2.25011 41.8333C2.59384 41.8252 2.93023 41.7322 3.22927 41.5625L14.9168 35.7708C15.115 35.6649 15.2973 35.5317 15.4584 35.375ZM39.7501 41.8333C40.9007 41.8333 41.8334 40.9006 41.8334 39.75C41.8334 38.5994 40.9007 37.6667 39.7501 37.6667H21.0001C19.8495 37.6667 18.9168 38.5994 18.9168 39.75C18.9168 40.9006 19.8495 41.8333 21.0001 41.8333H39.7501ZM30.0001 14.9375L27.0626 12L9.81261 29.3333L6.91677 35.1667L12.6668 32.1875L30.0001 14.9375ZM35.5105 4.33071C36.0816 4.33071 36.6276 4.56513 37.0209 4.97915C37.4269 5.38097 37.6501 5.93188 37.6383 6.50299C37.6265 7.07409 37.3807 7.6153 36.9584 7.99998L32.9376 12L30.0001 9.06248L34.0001 4.97915C34.3934 4.56513 34.9395 4.33071 35.5105 4.33071Z" fill="#212121"/>
</g>
</g>
</svg>
