<svg width="28" height="22" viewBox="0 0 28 22" fill="none" xmlns="http://www.w3.org/2000/svg">
<g id="Group">
<g id="Layer_118">
<path id="Shape" fill-rule="evenodd" clip-rule="evenodd" d="M24.0002 0.333374C22.1592 0.333374 20.6669 1.82576 20.6669 3.66671V11C20.5963 9.83843 19.8878 8.81159 18.8269 8.33337L5.22686 0.840041C4.28239 0.243818 3.08985 0.203047 2.10686 0.733374C1.15873 1.33396 0.608254 2.39923 0.666859 3.52004V18.4934C0.608843 19.6111 1.14645 20.6762 2.08019 21.2934C2.48401 21.533 2.94396 21.6618 3.41353 21.6667C4.03218 21.6518 4.63724 21.4822 5.17353 21.1734L18.8269 13.6667C19.8878 13.1885 20.5963 12.1617 20.6669 11V18.3334C20.6669 20.1743 22.1592 21.6667 24.0002 21.6667C25.8411 21.6667 27.3335 20.1743 27.3335 18.3334V3.66671C27.3335 1.82576 25.8411 0.333374 24.0002 0.333374ZM3.94686 18.84L17.4935 11.3467H17.5335C17.7085 11.2581 17.8525 11.1186 17.9469 10.9467C17.9356 10.958 17.9099 10.9358 17.8608 10.8933C17.7939 10.8354 17.6836 10.7399 17.5069 10.64L3.92019 3.16004C3.78019 3.06908 3.61989 3.01412 3.45353 3.00004C3.36586 3.15881 3.3243 3.33891 3.33353 3.52004V18.4934C3.32282 18.6722 3.36954 18.8497 3.46686 19C3.63805 18.9893 3.80349 18.9342 3.94686 18.84ZM24.0002 19C24.3684 19 24.6669 18.7016 24.6669 18.3334V3.66671C24.6669 3.29852 24.3684 3.00004 24.0002 3.00004C23.632 3.00004 23.3335 3.29852 23.3335 3.66671V18.3334C23.3335 18.7016 23.632 19 24.0002 19Z" fill="#FA524D"/>
</g>
</g>
</svg>
