<svg width="42" height="42" viewBox="0 0 42 42" fill="none" xmlns="http://www.w3.org/2000/svg">
<g id="Group">
<g id="Layer_47">
<path id="Shape" fill-rule="evenodd" clip-rule="evenodd" d="M41.5831 15.6458C42.1243 17.2246 41.7294 18.9736 40.5623 20.1667L33.8956 27C33.851 27.0773 33.851 27.1726 33.8956 27.25L35.3331 36.6667C35.6079 38.3432 34.9014 40.0295 33.5135 41.0094C32.1257 41.9893 30.3002 42.0908 28.8123 41.2708L21.0414 36.9583C20.9631 36.9176 20.8698 36.9176 20.7914 36.9583L13.0206 41.2708C11.5341 42.1091 9.69769 42.016 8.3036 41.0317C6.90951 40.0474 6.20724 38.348 6.49977 36.6667L8.04144 27.2083C8.07977 27.1221 8.07977 27.0237 8.04144 26.9375L1.45811 20.1667C0.296731 18.9709 -0.10459 17.2292 0.41644 15.6458C0.940546 14.0642 2.31012 12.9122 3.95811 12.6667L12.8748 11.2292C12.9644 11.205 13.0399 11.1446 13.0831 11.0625L16.9998 2.72916C17.7129 1.16247 19.2784 0.159546 20.9998 0.166664C22.7418 0.167669 24.3189 1.19726 25.0206 2.79166L28.9373 11.125C28.9715 11.206 29.0404 11.2672 29.1248 11.2917L38.0623 12.6667C39.7086 12.9056 41.075 14.0617 41.5831 15.6458ZM29.7706 27.875C29.5487 26.4784 29.9962 25.0586 30.9789 24.0417L37.6456 17.1875C37.7061 17.0921 37.7061 16.9704 37.6456 16.875C37.609 16.7755 37.5212 16.7037 37.4164 16.6875L28.4998 15.3125C27.0329 15.0951 25.7731 14.1561 25.1456 12.8125L21.2498 4.47918C21.2059 4.38237 21.1056 4.32387 20.9998 4.33334C20.9355 4.32747 20.8717 4.349 20.8241 4.39263C20.7765 4.43626 20.7495 4.49794 20.7498 4.56251L16.8331 12.8958C16.2345 14.219 15.0156 15.1567 13.5831 15.3958L4.64561 16.7708C4.54671 16.7898 4.46646 16.862 4.43727 16.9583C4.38145 17.055 4.38145 17.1742 4.43727 17.2708L11.0206 24.0833C12.0121 25.095 12.4611 26.5193 12.2289 27.9167L10.6873 37.375C10.6728 37.4877 10.7207 37.5994 10.8123 37.6667H11.0831L18.7914 33.3125C20.1269 32.5747 21.7477 32.5747 23.0831 33.3125L31.0206 37.625C31.0986 37.6917 31.2135 37.6917 31.2914 37.625C31.383 37.5578 31.4309 37.4461 31.4164 37.3333L29.7706 27.875Z" fill="white"/>
</g>
</g>
</svg>
