<svg width="45" height="36" viewBox="0 0 45 36" fill="none" xmlns="http://www.w3.org/2000/svg">
<g clip-path="url(#clip0_136_4383)">
<path d="M6.00673 19.7375H37.0343H37.0919C37.0919 19.7375 37.0919 19.723 37.0919 19.6797V16.9777V16.9199C37.0919 16.9199 37.0775 16.9199 37.0343 16.9199C36.991 16.9199 36.9766 16.9199 36.9766 16.9199C36.9766 16.9199 36.9766 16.9344 36.9766 16.9777V19.6074H5.97793L5.83388 19.3329L5.05603 17.8447L5.94912 19.6941C5.94912 19.6941 5.99233 19.7375 6.00673 19.7519V19.7375Z" stroke="#231F20" stroke-width="3" stroke-linecap="round" stroke-linejoin="round"/>
<path d="M3.31305 29.6346H16.8822C18.049 29.6346 18.9853 28.681 18.9853 27.525V21.312" stroke="#231F20" stroke-width="3" stroke-linecap="round" stroke-linejoin="round"/>
<path d="M3.31305 34.3883H20.8147C22.3127 34.3883 23.5371 33.4347 23.5371 32.2788V21.3843" stroke="#231F20" stroke-width="3" stroke-linecap="round" stroke-linejoin="round"/>
<path d="M28.0314 15.2003H34.0669C35.2337 15.2003 36.17 14.1889 36.17 12.9319V6.2998" stroke="#231F20" stroke-width="3" stroke-linecap="round" stroke-linejoin="round"/>
<path d="M39.8431 5.08595H29.7887L24.7615 15.966H1.45486L1.44046 11.3423L5.96351 1.44482H43.5595V5.36048L38.8348 15.2002" stroke="#231F20" stroke-width="3" stroke-linecap="round" stroke-linejoin="round"/>
</g>
<defs>
<clipPath id="clip0_136_4383">
<rect width="45" height="35.8333" fill="white"/>
</clipPath>
</defs>
</svg>
