<?xml version="1.0" encoding="UTF-8"?>
<svg id="Layer_2" data-name="Layer 2" xmlns="http://www.w3.org/2000/svg" viewBox="0 0 29.62 29.62">
  <defs>
    <style>
      .cls-1 {
        fill: #231f20;
      }
    </style>
  </defs>
  <g id="Layer_1-2" data-name="Layer 1">
    <g>
      <path class="cls-1" d="M25.53,0H4.09C1.83,0,0,1.83,0,4.09V25.53c0,2.26,1.83,4.09,4.09,4.09h15.31c.75,0,1.35-.6,1.35-1.35s-.6-1.35-1.35-1.35H4.09c-.77,0-1.39-.62-1.39-1.39V4.09c0-.77,.62-1.39,1.39-1.39H25.53c.77,0,1.39,.62,1.39,1.39v14.93c0,.75,.6,1.35,1.35,1.35s1.35-.6,1.35-1.35V4.09c0-2.26-1.83-4.09-4.09-4.09Z"/>
      <path class="cls-1" d="M22.35,21.1c1.41-1.67,2.27-3.82,2.27-6.17,0-5.28-4.29-9.57-9.57-9.57S5.47,9.65,5.47,14.93s4.29,9.57,9.57,9.57c1.95,0,3.77-.59,5.29-1.6l5.1,5.41c.27,.28,.62,.42,.98,.42,.33,0,.67-.12,.93-.37,.54-.51,.57-1.37,.06-1.91l-5.05-5.36Zm-14.34-6.17c0-3.88,3.16-7.04,7.04-7.04s7.04,3.16,7.04,7.04-3.16,7.04-7.04,7.04-7.04-3.16-7.04-7.04Z"/>
    </g>
  </g>
</svg>