<svg width="34" height="35" viewBox="0 0 34 35" fill="none" xmlns="http://www.w3.org/2000/svg">
<path fill-rule="evenodd" clip-rule="evenodd" d="M25.5064 8.54052C25.5064 3.82851 21.7059 0 17 0C12.2941 0 8.50638 3.81571 8.50638 8.54052C8.50638 13.2653 12.3068 17.081 17.0128 17.081H15.3166C6.84846 17.0682 0 23.957 0 32.4335C0 33.381 0.765191 34.1365 1.69617 34.1365H32.3038C33.2476 34.1365 34 33.3682 34 32.4335C34 23.9442 27.1515 17.0682 18.6962 17.0682H17C19.2573 17.0682 21.4126 16.1719 23.0068 14.5714C24.6009 12.9708 25.4936 10.7941 25.4936 8.54052H25.5064ZM15.3038 20.487C9.38635 20.487 4.36159 24.8533 3.51988 30.7305H30.4929C29.6512 24.8533 24.6264 20.487 18.7089 20.487H15.3038ZM11.8987 8.54052C11.8987 11.3703 14.1815 13.6623 17 13.6623C18.3518 13.6623 19.6527 13.1245 20.6092 12.1642C21.5656 11.2038 22.1013 9.89779 22.1013 8.54052C22.1013 5.71075 19.8185 3.41877 17 3.41877C14.1815 3.41877 11.8987 5.71075 11.8987 8.54052Z" fill="#231F20"/>
</svg>
