<svg width="34" height="34" viewBox="0 0 34 34" fill="none" xmlns="http://www.w3.org/2000/svg">
<g clip-path="url(#clip0_136_4438)">
<path fill-rule="evenodd" clip-rule="evenodd" d="M5.09936 0H10.1987C13.0161 0 15.2981 2.28196 15.2981 5.09936V10.1987C15.2981 13.0161 13.0161 15.2981 10.1987 15.2981H5.09936C2.28196 15.2981 0 13.0161 0 10.1987V5.09936C0 2.28196 2.28196 0 5.09936 0ZM10.1987 11.8943C11.1421 11.8943 11.8943 11.1294 11.8943 10.1987V5.09936C11.8943 4.15598 11.1294 3.40382 10.1987 3.40382H5.09936C4.15598 3.40382 3.40382 4.16873 3.40382 5.09936V10.1987C3.40382 11.1421 4.16873 11.8943 5.09936 11.8943H10.1987ZM10.1987 18.6892H5.09936C2.28196 18.6892 0 20.9711 0 23.7885V28.8879C0 31.7053 2.28196 33.9873 5.09936 33.9873H10.1987C13.0161 33.9873 15.2981 31.7053 15.2981 28.8879V23.7885C15.2981 20.9711 13.0161 18.6892 10.1987 18.6892ZM10.1987 30.5834C11.1421 30.5834 11.8943 29.8185 11.8943 28.8879V23.7885C11.8943 22.8451 11.1294 22.093 10.1987 22.093H5.09936C4.15598 22.093 3.40382 22.8579 3.40382 23.7885V28.8879C3.40382 29.8313 4.16873 30.5834 5.09936 30.5834H10.1987ZM28.9006 18.6892H23.8013C20.9839 18.6892 18.7019 20.9711 18.7019 23.7885V28.8879C18.7019 31.7053 20.9839 33.9873 23.8013 33.9873H28.9006C31.718 33.9873 34 31.7053 34 28.8879V23.7885C34 20.9711 31.718 18.6892 28.9006 18.6892ZM28.9006 30.5834C29.844 30.5834 30.5962 29.8185 30.5962 28.8879V23.7885C30.5962 22.8451 29.8313 22.093 28.9006 22.093H23.8013C22.8579 22.093 22.1057 22.8579 22.1057 23.7885V28.8879C22.1057 29.8313 22.8706 30.5834 23.8013 30.5834H28.9006ZM28.9006 0H23.8013C20.9839 0 18.7019 2.28196 18.7019 5.09936V10.1987C18.7019 13.0161 20.9839 15.2981 23.8013 15.2981H28.9006C31.718 15.2981 34 13.0161 34 10.1987V5.09936C34 2.28196 31.718 0 28.9006 0ZM28.9006 11.8943C29.844 11.8943 30.5962 11.1294 30.5962 10.1987V5.09936C30.5962 4.15598 29.8313 3.40382 28.9006 3.40382H23.8013C22.8579 3.40382 22.1057 4.16873 22.1057 5.09936V10.1987C22.1057 11.1421 22.8706 11.8943 23.8013 11.8943H28.9006Z" fill="#231F20"/>
</g>
<defs>
<clipPath id="clip0_136_4438">
<rect width="34" height="34" fill="white"/>
</clipPath>
</defs>
</svg>
