<svg width="32" height="32" viewBox="0 0 32 32" fill="none" xmlns="http://www.w3.org/2000/svg">
<g clip-path="url(#clip0_136_4430)">
<path fill-rule="evenodd" clip-rule="evenodd" d="M22.8931 20.6374L31.5321 29.2643C31.832 29.5643 32 29.9723 32 30.4042C32 30.8361 31.832 31.2441 31.5321 31.5441C31.2321 31.844 30.8241 32.012 30.3922 32.012C29.9603 32.012 29.5523 31.844 29.2523 31.5441L20.6254 22.9051C18.3937 24.6569 15.634 25.6168 12.7904 25.6048C5.73528 25.5928 0 19.8695 0 12.8024C0 5.73528 5.73528 0 12.8024 0C19.8695 0 25.6048 5.73528 25.6048 12.8024C25.6048 15.646 24.6569 18.4057 22.9051 20.6374H22.8931ZM12.8024 3.2036C7.49906 3.2036 3.2036 7.49906 3.2036 12.8024C3.2036 18.1057 7.49906 22.4012 12.8024 22.4012C18.1057 22.4012 22.4012 18.1057 22.4012 12.8024C22.4012 7.49906 18.0937 3.2036 12.8024 3.2036Z" fill="#231F20"/>
</g>
<defs>
<clipPath id="clip0_136_4430">
<rect width="32" height="32" fill="white"/>
</clipPath>
</defs>
</svg>
