<?xml version="1.0" encoding="UTF-8"?>
<svg id="Layer_2" data-name="Layer 2" xmlns="http://www.w3.org/2000/svg" viewBox="0 0 30.03 25.98">
  <defs>
    <style>
      .cls-1 {
        fill: #212120;
      }
    </style>
  </defs>
  <g id="Layer_1-2" data-name="Layer 1">
    <path d="M29.11,17.54c-.7-.69-1.66-.92-2.65-.63l-5.2,1.49-.38-.21c-.07-.05-.13-.1-.21-.14-.03-.02-.07-.02-.11-.03l-7.96-4.42c-.32-.21-1.32-.76-2.8-.35-1.24,.34-9.04,2.57-9.04,2.57-.56,.16-.89,.74-.73,1.31l1.7,6.06c.08,.27,.26,.5,.5,.64,.25,.14,.54,.17,.81,.09l5.2-1.48c1.16,.74,4.26,2.69,5.11,3.11,.55,.28,.97,.44,1.62,.44,.38,0,.84-.06,1.46-.17,1.4-.27,5.09-1.37,8.06-2.25,1.59-.47,2.96-.88,3.51-1.02,.96-.25,1.67-.94,1.93-1.9,.29-1.08-.04-2.32-.82-3.09Zm-13.08,6.18c-1.12,.22-1.21,.17-1.71-.08-.76-.38-4.11-2.49-5.33-3.27-.17-.11-.37-.17-.57-.17-.1,0-.2,.01-.29,.04l-4.63,1.32-1.13-4.01c2.15-.61,7.04-2.01,8-2.27,.65-.18,1.02,.04,1.02,.04,.04,.04,.09,.07,.14,.09l8.29,4.6c.13,.12,.24,.32,.08,.66-.11,.22-.3,.37-.38,.34-1.35-.54-4.72-2.5-4.75-2.52-.5-.29-1.15-.12-1.45,.38-.29,.51-.12,1.16,.38,1.45,.14,.08,3.54,2.06,5.03,2.66,.02,0,.04,.01,.06,.02-1.19,.34-2.21,.61-2.77,.71Zm11.85-3.65c-.08,.28-.26,.36-.4,.4-.58,.15-1.91,.54-3.59,1.04-.78,.23-1.65,.49-2.52,.75,.17-.2,.32-.42,.44-.67,.19-.41,.27-.82,.28-1.22l4.96-1.42c.31-.09,.47,0,.57,.11,.24,.23,.35,.68,.26,1.02Z"/>
    <g>
      <path class="cls-1" d="M27.99,8.67c0-.11,0-.22,0-.33s0-.22-.01-.34l1.26-.96c.48-.39,.6-1.08,.28-1.59l-1.54-2.6c-.31-.5-.95-.72-1.53-.51l-1.48,.58c-.2-.13-.41-.25-.62-.35l-.22-1.55c-.11-.58-.64-1.01-1.24-1.01h-3.07c-.61,0-1.13,.44-1.24,1.06l-.22,1.51c-.21,.11-.42,.22-.62,.35l-1.5-.58c-.56-.21-1.2,.02-1.52,.53l-1.53,2.57c-.33,.53-.2,1.21,.3,1.63l1.24,.94c0,.11-.01,.22-.01,.33s0,.22,.01,.34l-1.27,.96c-.48,.39-.6,1.08-.28,1.59l1.54,2.59c.31,.51,.96,.73,1.53,.51l1.48-.58c.2,.13,.41,.25,.62,.35l.22,1.54c.11,.58,.64,1.01,1.24,1.01h3.07c.62,0,1.13-.43,1.24-1.06l.22-1.51c.21-.11,.42-.22,.62-.35l1.5,.59c.56,.2,1.2-.02,1.52-.53l1.53-2.57c.33-.53,.2-1.21-.3-1.63l-1.24-.94Zm-11.4,.79l-.07-.5c-.03-.24-.05-.44-.05-.62s.02-.38,.05-.61l.07-.5-1.67-1.27,1.1-1.85,1.98,.78,.39-.29c.32-.25,.7-.46,1.11-.63l.45-.19,.29-2.04h2.25l.29,2.03,.46,.19c.39,.16,.75,.37,1.1,.62l.39,.29,1.98-.78,1.1,1.85-1.67,1.27,.07,.5c.03,.24,.05,.45,.05,.62s-.02,.38-.05,.61l-.07,.5,1.67,1.27-1.1,1.85-1.98-.78-.39,.29c-.32,.25-.7,.46-1.11,.63l-.45,.19-.29,2.04h-2.25l-.29-2.03-.46-.19c-.4-.16-.76-.37-1.1-.62l-.39-.29-1.98,.78-1.1-1.85,1.67-1.27Z"/>
      <path class="cls-1" d="M21.37,11.45c1.71,0,3.11-1.4,3.11-3.11s-1.4-3.11-3.11-3.11-3.11,1.39-3.11,3.11,1.4,3.11,3.11,3.11Zm-1.37-3.11c0-.76,.62-1.37,1.37-1.37s1.37,.62,1.37,1.37-.62,1.37-1.37,1.37-1.37-.62-1.37-1.37Z"/>
    </g>
  </g>
</svg>