<svg width="42" height="42" viewBox="0 0 42 42" fill="none" xmlns="http://www.w3.org/2000/svg">
<path fill-rule="evenodd" clip-rule="evenodd" d="M41.5833 15.6462C42.1246 17.225 41.7296 18.974 40.5625 20.167L33.8958 27.0004C33.8512 27.0777 33.8512 27.173 33.8958 27.2504L35.3333 36.667C35.6081 38.3436 34.9016 40.0298 33.5138 41.0098C32.1259 41.9897 30.3004 42.0912 28.8125 41.2712L21.0417 36.9587C20.9633 36.9179 20.87 36.9179 20.7917 36.9587L13.0208 41.2712C11.5343 42.1095 9.69792 42.0164 8.30383 41.0321C6.90974 40.0477 6.20747 38.3483 6.5 36.667L8.04167 27.2087C8.08 27.1225 8.08 27.0241 8.04167 26.9379L1.45834 20.167C0.29696 18.9713 -0.104361 17.2296 0.416668 15.6462C0.940775 14.0646 2.31034 12.9125 3.95834 12.667L12.875 11.2295C12.9646 11.2054 13.0401 11.145 13.0833 11.0629L17 2.72953C17.7131 1.16284 19.2787 0.159912 21 0.16703C22.742 0.168035 24.3191 1.19762 25.0208 2.79203L28.9375 11.1254C28.9717 11.2063 29.0406 11.2676 29.125 11.292L38.0625 12.667C39.7089 12.9059 41.0752 14.0621 41.5833 15.6462ZM29.7708 27.8754C29.5489 26.4787 29.9964 25.059 30.9792 24.042L37.6458 17.1879C37.7063 17.0925 37.7063 16.9708 37.6458 16.8754C37.6092 16.7759 37.5215 16.7041 37.4167 16.6879L28.5 15.3129C27.0332 15.0955 25.7733 14.1564 25.1458 12.8129L21.25 4.47954C21.2061 4.38273 21.1059 4.32424 21 4.33371C20.9357 4.32784 20.8719 4.34937 20.8243 4.393C20.7767 4.43663 20.7497 4.49831 20.75 4.56288L16.8333 12.8962C16.2347 14.2194 15.0158 15.157 13.5833 15.3962L4.64583 16.7712C4.54694 16.7901 4.46669 16.8623 4.4375 16.9587C4.38168 17.0554 4.38168 17.1745 4.4375 17.2712L11.0208 24.0837C12.0124 25.0954 12.4613 26.5196 12.2292 27.917L10.6875 37.3754C10.673 37.4881 10.7209 37.5998 10.8125 37.667H11.0833L18.7917 33.3129C20.1271 32.5751 21.7479 32.5751 23.0833 33.3129L31.0208 37.6254C31.0988 37.6921 31.2137 37.6921 31.2917 37.6254C31.3833 37.5581 31.4311 37.4464 31.4167 37.3337L29.7708 27.8754Z" fill="white"/>
</svg>
